<svg xmlns="http://www.w3.org/2000/svg" xmlns:xlink="http://www.w3.org/1999/xlink" width="633.43" height="455.755" data-name="Layer 1" viewBox="0 0 633.43 455.755" style="user-select:auto"><path fill="#f2f2f2" d="M428.06643,358.64415c1.34056.834,2.65686,1.68345,3.971,2.56067A336.1591,336.1591,0,0,1,455.4885,470.69776q.30332,6.51411.30779,13.00816a326.40578,326.40578,0,0,1-14.01784,95.83842q-.74505,2.45352-1.52234,4.88732c-.3714,1.16438-.74948,2.33986-1.15967,3.495-.436.59215-.8656,1.17379-1.29492,1.75485-.03041.02551-.05679.06865-.08752.09468-.17308.23464-.34614.46938-.5017.69945-.74261.99672-1.4962,1.98744-2.23855,2.98358l.62532.04257,1.56748.09956-.00644.01053c-.52627-.01084-1.06326-.0284-1.59385-.05642-.19284.00065-.40291.00522-.59972-.01174-.17563-.00328-.36172-.01368-.53735-.017-22.60058-.61235-45.72981-1.74007-66.29619-10.98258-21.52643-9.682-39.78662-30.615-38.85866-54.19212a42.31731,42.31731,0,0,1,1.39721-9.13813c.33312-1.247.7268-2.47226,1.14855-3.69477a44.55589,44.55589,0,0,1,76.44183-13.99088c-6.16917-24.24478-32.65352-36.61662-56.5073-44.13839-23.87126-7.51728-50.72869-15.38054-62.92432-37.2256-6.80905-12.15642-6.973-26.31993-2.53-39.39882.13526-.39076.27734-.79253.43007-1.18779a65.01533,65.01533,0,0,1,31.35147-35.59146c27.27947-13.50633,60.42731-8.74086,88.37846,3.31408A161.15906,161.15906,0,0,1,428.06643,358.64415Z" transform="translate(-283.28486 -222.12235)" style="user-select:auto"/><path fill="#fff" d="M349.87856,515.61908a100.31968,100.31968,0,0,1,57.72394,25.14983,102.65649,102.65649,0,0,1,29.18957,45.79377c.31668,1.0075.605,2.01286.87592,3.02273.5417-1.03136,1.068-2.08585,1.58814-3.1304.33471-.66854.67618-1.34813,1.00011-2.02327-.3714,1.16438-.74948,2.33986-1.15967,3.495-.436.59215-.8656,1.17379-1.29492,1.75485-.03041.02551-.05679.06865-.08752.09468-.17308.23464-.34613.46938-.5017.69945-.74261.99672-1.4962,1.98744-2.23855,2.98358l.62533.04257,1.56747.09956-.00643.01053c-.52628-.01084-1.06326-.0284-1.59385-.05642-.19285.00065-.40292.00522-.59973-.01174-.0648-.30561-.14681-.60729-.22857-.90954a96.92964,96.92964,0,0,0-104.0664-73.42043c.33312-1.247.7268-2.47226,1.14854-3.69477A103.69269,103.69269,0,0,1,349.87856,515.61908Z" transform="translate(-283.28486 -222.12235)" style="user-select:auto"/><path fill="#fff" d="M421.11993,425.94174a110.37359,110.37359,0,0,1,22.60512,22.76091,91.57052,91.57052,0,0,1,8.63566,14.66528c1.14579,2.38755,2.18892,4.84606,3.1279,7.3298q.3033,6.51411.30778,13.00817a94.57078,94.57078,0,0,0-2.91108-9.67c-.59411-1.74019-1.25372-3.446-1.9547-5.13223-7.862-18.88486-22.10614-33.79559-38.90545-45.132-18.00171-12.13008-38.29636-21.23611-58.86378-28.00719a271.66443,271.66443,0,0,0-65.071-12.98687,1.94823,1.94823,0,0,1-1.78973-2.01214,1.67649,1.67649,0,0,1,.43006-1.18779,1.392,1.392,0,0,1,1.19455-.38c2.7321.20438,5.45712.42035,8.182.70923a274.88381,274.88381,0,0,1,66.36854,15.31975C383.13637,402.76527,403.58382,412.54151,421.11993,425.94174Z" transform="translate(-283.28486 -222.12235)" style="user-select:auto"/><circle cx="25.496" cy="91.797" r="7.578" fill="#f2f2f2" style="user-select:auto"/><rect width="344" height="293" x="147.046" y="161.755" fill="#fff" style="user-select:auto"/><path fill="#3f3d56" d="M775.33109,677.87765h-346v-295h346Zm-344-2h342v-291h-342Z" transform="translate(-283.28486 -222.12235)" style="user-select:auto"/><rect width="86" height="236" x="276.046" y="218.755" fill="#86efac" style="user-select:auto"/><rect width="86" height="236" x="276.046" y="218.755" fill="#86efac" style="user-select:auto"/><polygon points="148.046 183.255 148.046 230.793 491.046 252.755 490.035 194.097 148.046 183.255" opacity=".2" style="user-select:auto"/><rect width="384" height="84" x="127.046" y="134.755" fill="#fff" style="user-select:auto"/><path fill="#3f3d56" d="M795.33109,441.87765h-386v-86h386Zm-384-2h382v-82h-382Z" transform="translate(-283.28486 -222.12235)" style="user-select:auto"/><rect width="86" height="91" x="276.046" y="126.755" fill="#86efac" style="user-select:auto"/><path fill="#86efac" d="M593.12319,269.53387c22.70141,33.65162,1.31244,87.77543,1.31244,87.77543s-58.19523-.43625-80.89665-34.08787-1.31243-87.77544-1.31243-87.77544S570.42178,235.88224,593.12319,269.53387Z" transform="translate(-283.28486 -222.12235)" style="user-select:auto"/><path fill="#86efac" d="M603.539,269.53387c-22.70141,33.65162-1.31243,87.77543-1.31243,87.77543s58.19523-.43625,80.89664-34.08787,1.31244-87.77544,1.31244-87.77544S626.2404,235.88224,603.539,269.53387Z" transform="translate(-283.28486 -222.12235)" style="user-select:auto"/><circle cx="259.046" cy="63.755" r="9" fill="#3f3d56" style="user-select:auto"/><circle cx="313.046" cy="154.755" r="9" fill="#3f3d56" style="user-select:auto"/><circle cx="313.046" cy="351.755" r="9" fill="#3f3d56" style="user-select:auto"/><circle cx="283.046" cy="96.755" r="6" fill="#3f3d56" style="user-select:auto"/><circle cx="373.046" cy="45.755" r="6" fill="#3f3d56" style="user-select:auto"/><circle cx="334.046" cy="186.755" r="6" fill="#3f3d56" style="user-select:auto"/><circle cx="298.046" cy="264.755" r="6" fill="#3f3d56" style="user-select:auto"/><circle cx="329.046" cy="291.755" r="6" fill="#3f3d56" style="user-select:auto"/><circle cx="322.046" cy="404.755" r="6" fill="#3f3d56" style="user-select:auto"/><rect width="183.037" height="155.9" x="439.22" y="299.323" fill="#fff" style="user-select:auto"/><path fill="#3f3d56" d="M906.07348,677.87765H721.97275V520.91315H906.07348Zm-183.03657-1.06417H905.00932V521.97732H723.03691Z" transform="translate(-283.28486 -222.12235)" style="user-select:auto"/><rect width="45.759" height="125.572" x="507.859" y="329.652" fill="#86efac" style="user-select:auto"/><rect width="45.759" height="125.572" x="507.859" y="329.652" fill="#86efac" style="user-select:auto"/><polygon points="439.752 310.763 439.752 336.057 622.257 347.742 621.719 316.532 439.752 310.763" opacity=".2" style="user-select:auto"/><rect width="204.32" height="44.695" x="428.578" y="284.957" fill="#fff" style="user-select:auto"/><path fill="#3f3d56" d="M916.71514,552.30605h-205.384V506.54691H916.71514Zm-204.31989-1.06417H915.651V507.61107H712.39525Z" transform="translate(-283.28486 -222.12235)" style="user-select:auto"/><rect width="45.759" height="48.42" x="507.859" y="280.7" fill="#86efac" style="user-select:auto"/><path fill="#86efac" d="M809.12375,460.60485c12.079,17.90545.69832,46.70382.69832,46.70382s-30.96469-.23212-43.04373-18.13758-.69832-46.70383-.69832-46.70383S797.04471,442.69939,809.12375,460.60485Z" transform="translate(-283.28486 -222.12235)" style="user-select:auto"/><path fill="#86efac" d="M814.66582,460.60485c-12.079,17.90545-.69833,46.70382-.69833,46.70382s30.9647-.23212,43.04373-18.13758.69833-46.70383.69833-46.70383S826.74485,442.69939,814.66582,460.60485Z" transform="translate(-283.28486 -222.12235)" style="user-select:auto"/><circle cx="498.813" cy="247.179" r="4.789" fill="#3f3d56" style="user-select:auto"/><circle cx="527.546" cy="295.598" r="4.789" fill="#3f3d56" style="user-select:auto"/><circle cx="527.546" cy="400.419" r="4.789" fill="#3f3d56" style="user-select:auto"/><circle cx="511.583" cy="264.737" r="3.192" fill="#3f3d56" style="user-select:auto"/><circle cx="559.471" cy="237.601" r="3.192" fill="#3f3d56" style="user-select:auto"/><circle cx="538.72" cy="312.625" r="3.192" fill="#3f3d56" style="user-select:auto"/><circle cx="519.565" cy="354.127" r="3.192" fill="#3f3d56" style="user-select:auto"/><circle cx="536.059" cy="368.494" r="3.192" fill="#3f3d56" style="user-select:auto"/><circle cx="532.335" cy="428.619" r="3.192" fill="#3f3d56" style="user-select:auto"/><ellipse cx="571.139" cy="596.292" fill="rgb(21 128 61)" rx="6.76" ry="21.534" transform="translate(-495.6615 634.68107) rotate(-64.62574)" style="user-select:auto"/><ellipse cx="665.455" cy="623.753" fill="rgb(21 128 61)" rx="6.76" ry="21.534" transform="translate(-528.48439 350.57453) rotate(-39.93837)" style="user-select:auto"/><circle cx="336.363" cy="394.153" r="43.067" fill="rgb(21 128 61)" style="user-select:auto"/><rect width="13.084" height="23.442" x="341.508" y="427.952" fill="rgb(21 128 61)" style="user-select:auto"/><rect width="13.084" height="23.442" x="315.34" y="427.952" fill="rgb(21 128 61)" style="user-select:auto"/><ellipse cx="343.688" cy="451.667" fill="rgb(21 128 61)" rx="10.903" ry="4.089" style="user-select:auto"/><ellipse cx="317.521" cy="451.121" fill="rgb(21 128 61)" rx="10.903" ry="4.089" style="user-select:auto"/><path fill="#e6e6e6" d="M606.12461,562.13821c3.84558-15.487,20.82056-24.60077,37.91474-20.35617s27.83429,20.24029,23.98871,35.72729-16.60395,15.537-33.69812,11.29236S602.279,577.62524,606.12461,562.13821Z" transform="translate(-283.28486 -222.12235)" style="user-select:auto"/><circle cx="329.924" cy="385.065" r="14.359" fill="#fff" style="user-select:auto"/><circle cx="324.023" cy="379.918" r="4.786" fill="#3f3d56" style="user-select:auto"/><path fill="#fff" d="M622.21623,637.103a9.57244,9.57244,0,1,1-18.83533,3.42883h0l-.00336-.01849c-.94177-5.20215,3.08039-7.043,8.28254-7.98474S621.27452,631.90087,622.21623,637.103Z" transform="translate(-283.28486 -222.12235)" style="user-select:auto"/><ellipse cx="704.139" cy="285.673" fill="rgb(21 128 61)" rx="21.534" ry="6.76" transform="translate(-339.01306 68.32177) rotate(-22.4424)" style="user-select:auto"/><ellipse cx="798.455" cy="305.135" fill="rgb(21 128 61)" rx="6.76" ry="21.534" transform="translate(-292.91901 361.63329) rotate(-39.93837)" style="user-select:auto"/><circle cx="469.363" cy="75.535" r="43.067" fill="rgb(21 128 61)" style="user-select:auto"/><rect width="13.084" height="23.442" x="474.508" y="109.334" fill="rgb(21 128 61)" style="user-select:auto"/><rect width="13.084" height="23.442" x="448.34" y="109.334" fill="rgb(21 128 61)" style="user-select:auto"/><ellipse cx="476.688" cy="133.048" fill="rgb(21 128 61)" rx="10.903" ry="4.089" style="user-select:auto"/><ellipse cx="450.521" cy="132.503" fill="rgb(21 128 61)" rx="10.903" ry="4.089" style="user-select:auto"/><path fill="#86efac" d="M739.12461,243.52c3.84558-15.487,20.82056-24.60077,37.91474-20.35617s27.83429,20.24029,23.98871,35.72729-16.60395,15.537-33.69812,11.29236S735.279,259.007,739.12461,243.52Z" transform="translate(-283.28486 -222.12235)" style="user-select:auto"/><circle cx="462.924" cy="66.447" r="14.359" fill="#fff" style="user-select:auto"/><circle cx="457.023" cy="68.3" r="4.786" fill="#3f3d56" style="user-select:auto"/><path fill="#fff" d="M755.21623,318.48473a9.57244,9.57244,0,1,1-18.83533,3.42883h0l-.00336-.01849c-.94177-5.20215,3.08039-7.043,8.28254-7.98474S754.27452,313.28264,755.21623,318.48473Z" transform="translate(-283.28486 -222.12235)" style="user-select:auto"/><circle cx="100.885" cy="394.153" r="43.067" fill="rgb(21 128 61)" style="user-select:auto"/><rect width="13.084" height="23.442" x="81.259" y="427.952" fill="rgb(21 128 61)" style="user-select:auto"/><rect width="13.084" height="23.442" x="107.426" y="427.952" fill="rgb(21 128 61)" style="user-select:auto"/><ellipse cx="92.162" cy="451.667" fill="rgb(21 128 61)" rx="10.903" ry="4.089" style="user-select:auto"/><ellipse cx="118.33" cy="451.121" fill="rgb(21 128 61)" rx="10.903" ry="4.089" style="user-select:auto"/><path fill="#86efac" d="M342.3927,576.22369c-3.47748-15.5738,7.63865-31.31043,24.82865-35.14881s33.94422,5.67511,37.4217,21.2489-7.91492,21.31769-25.10486,25.156S345.87019,591.79748,342.3927,576.22369Z" transform="translate(-283.28486 -222.12235)" style="user-select:auto"/><ellipse cx="425.273" cy="592.154" fill="rgb(21 128 61)" rx="23.892" ry="7.501" transform="translate(-577.48668 252.30643) rotate(-45.0221)" style="user-select:auto"/><ellipse cx="332.568" cy="595.154" fill="rgb(21 128 61)" rx="7.501" ry="23.892" transform="translate(-606.64366 187.1021) rotate(-44.9779)" style="user-select:auto"/><circle cx="99.073" cy="388.049" r="14.719" fill="#fff" style="user-select:auto"/><circle cx="99.073" cy="388.049" r="4.906" fill="#3f3d56" style="user-select:auto"/><path fill="#fff" d="M394.042,637.3943a9.57244,9.57244,0,1,1-18.83533,3.42883h0l-.00335-.01849c-.94178-5.20215,3.08038-7.043,8.28253-7.98474S393.10025,632.19221,394.042,637.3943Z" transform="translate(-283.28486 -222.12235)" style="user-select:auto"/></svg>