<svg xmlns="http://www.w3.org/2000/svg" data-name="Layer 1" width="885.47873" height="878" viewBox="0 0 885.47873 878" xmlns:xlink="http://www.w3.org/1999/xlink" style="user-select: auto;"><title style="user-select: auto;">jewelleries</title><rect x="375.47703" y="388.93332" width="554.51193" height="316.39798" transform="matrix(0.9579, 0.28711, -0.28711, 0.9579, 27.30648, -175.36951)" fill="none" style="user-select: auto;"/><path d="M873.26636,782.08854,157.26064,561.77364,326.73364,11l716.00572,220.3149ZM161.22511,559.752,871.12418,778.18788l167.65071-544.85134L328.87582,14.90066Z" transform="translate(-157.26064 -11)" fill="none" style="user-select: auto;"/><rect x="258.08665" y="184.26887" width="197.71542" height="224.38173" fill="#2f2e41" style="user-select: auto;"/><path d="M723.679,861.14268H435.69526V754.34078a213.73271,213.73271,0,0,1,13.17843-73.48358c.43884-1.20153.87746-2.384,1.33516-3.56641,12.75913-33.16583,29.35148-52.638,29.35148-52.638,116.33778,64.844,186.90332,5.72153,186.90332,5.72153l12.6255,50.92164.91541,3.69993,33.58535,135.44761.91541,3.719Z" transform="translate(-157.26064 -11)" fill="#2f2e41" style="user-select: auto;"/><path d="M680.00456,684.99586c-43.331,10.54663-81.72248,14.17031-114.08721,14.17031a397.59612,397.59612,0,0,1-60.19061-4.44376,324.32687,324.32687,0,0,1-56.853-13.86521c.43884-1.20153.87746-2.384,1.33516-3.56641a319.1093,319.1093,0,0,0,56.319,13.69352c39.34506,6.02674,98.69639,8.27719,172.56131-9.68838Z" transform="translate(-157.26064 -11)" fill="#86efac" style="user-select: auto;"/><path d="M714.50532,824.16249c-57.61573,18.02285-107.88888,23.76347-148.588,23.76347a397.59742,397.59742,0,0,1-60.19061-4.44376c-32.76517-5.05406-56.66215-13.312-70.03148-18.82382v-4.13854c12.79708,5.41631,36.99928,14.03679,70.83258,19.22425,45.29544,6.94216,117.11979,8.86842,207.06207-19.30062Z" transform="translate(-157.26064 -11)" fill="#86efac" style="user-select: auto;"/><path d="M722.72537,379.58054,682.1215,449.68838v.019l-1.354,2.3459L587.31582,535.969,472.88521,457.77479,423.29861,394.838s7.62871-24.7933,34.32919-28.60765c7.03737-1.01086,13.00707-2.00251,18.44225-3.14689,3.7-.78189,7.15191-1.621,10.52765-2.57464,10.47038-2.9561,20.1399-6.98034,33.96693-13.35024,24.7933-11.44306-7.62871-47.67942-7.62871-47.67942l66.75119-41.95789s29.6376,96.31243,81.60817,95.45418c.76268,0,1.52583-.03819,2.30761-.09534,2.86076-.20976,5.58789-.30521,8.18186-.3243C717.59517,352.25067,722.72537,379.58054,722.72537,379.58054Z" transform="translate(-157.26064 -11)" fill="#ffb8b8" style="user-select: auto;"/><path d="M490.0498,432.98149l-13.97975-69.89807c3.7-.78189,7.15191-1.621,10.52765-2.57464Z" transform="translate(-157.26064 -11)" fill="#86efac" style="user-select: auto;"/><path d="M671.78475,352.55577,658.83494,422.492l2.46034-69.51661c.76268,0,1.52583-.03819,2.30761-.09534C666.46365,352.67031,669.19078,352.57486,671.78475,352.55577Z" transform="translate(-157.26064 -11)" fill="#86efac" style="user-select: auto;"/><circle cx="359.48964" cy="223.63511" r="72.47272" fill="#ffb8b8" style="user-select: auto;"/><path d="M434.74167,383.3949,423.29861,394.838s-17.16459,154.48132,0,228.86121L503.4,829.67426s20.97894,72.47272,66.75119,57.2153-38.14354-99.17319-38.14354-99.17319l-59.12248-162.11V423.44561Z" transform="translate(-157.26064 -11)" fill="#ffb8b8" style="user-select: auto;"/><path d="M694.11771,362.416l28.60766,17.16459s24.79329,85.823,3.81435,204.06792l-32.422,225.04686s-19.07176,85.82295-59.12247,64.844,26.70047-91.54449,26.70047-91.54449L678.8603,606.53458l3.81435-183.089Z" transform="translate(-157.26064 -11)" fill="#ffb8b8" style="user-select: auto;"/><path d="M577.77993,494.01115l-89.63731-74.37989L469.07086,465.4035s-19.07177,190.71768-3.81436,186.90332,17.16459-20.97894,30.51483-7.62871,97.266,32.422,108.70908,20.979,66.75118-28.60765,66.75118-28.60765,22.88612-17.16459,15.25742-40.05071,0-26.70048,1.90717-36.23636,0-110.61625,0-110.61625l-26.70047-45.77225Z" transform="translate(-157.26064 -11)" fill="#86efac" style="user-select: auto;"/><path d="M580.17508,367.23046c16.92992-2.10274,31.61183-12.86413,43.63784-31.98433l-3.22953-2.0301c-11.3816,18.09583-25.12855,28.26589-40.85717,30.22708-27.9502,3.48376-53.16255-20.21347-53.414-20.45279l-2.63354,2.75926c1.002.95731,23.23813,21.86548,50.23474,21.86548.01723,0,.03492-.00163.05215-.00163v30.18144a9.52953,9.52953,0,1,0,3.81435.389V367.45163C578.57637,367.39145,579.37305,367.33033,580.17508,367.23046Z" transform="translate(-157.26064 -11)" fill="#86efac" style="user-select: auto;"/><path d="M513.88951,109.715s-73.33458,9.16875-89.75276,53.41019-45.15,67.46819-45.15,67.46819S333.72716,262.054,356.357,318.21606c0,0-70.40652,47.31373-23.88836,89.3431,0,0-2.73636,42.02937,24.62727,70.7863,0,0,21.8909,11.06036,13.68181,17.69657s54.72725,2.21208,49.25453-57.51386,31.46817-101.79763,31.46817-101.79763-35.57272-77.43692-19.15454-103.98178c9.96818-16.11652,14.249-28.135,22.524-35.09079a103.81179,103.81179,0,0,0,12.77433-12.46686c5.09583-6.05442,15.41066-14.30039,31.74254-9.8995a45.97971,45.97971,0,0,1,18.84058,9.9123,344.81354,344.81354,0,0,0,52.87052,38.60683c8.84473,5.24828,18.10747,11.17928,26.70747,17.49949,15.92542,11.70372,2.76857,36.50733-13.15463,57.27272-23.55861,30.72272-24.02426,73.88224.617,103.7436q1.08625,1.31637,2.21559,2.58219c24.09431,26.98321-6.94368,50.5037-8.742,53.52807-4.10455,6.90277-20.49637,50.49148,47.21543,50.68457,0,0,15.7209-32.988,37.61181-52.89664s5.47272-77.42252,5.47272-77.42252,32.83635-19.90864-2.73636-68.57422c0,0,18.81574-59.2326-11.28425-87.98954C655.02059,222.23846,606.92584,94.23053,513.88951,109.715Z" transform="translate(-157.26064 -11)" fill="#2f2e41" style="user-select: auto;"/><ellipse cx="438.63748" cy="225.54229" rx="9.53588" ry="14.30383" fill="#ffb8b8" style="user-select: auto;"/><path d="M596.85156,296.66455c-11.06738,0-20.07177-11.5708-20.07177-25.793,0-14.22265,9.00439-25.79345,20.07177-25.79345a1,1,0,0,1,0,2c-9.96484,0-18.07177,10.67382-18.07177,23.79345s8.10693,23.793,18.07177,23.793,18.07227-10.67334,18.07227-23.793c0-11.69678-4.19336-20.25293-11.21875-22.88769a1.00034,1.00034,0,0,1,.70312-1.87305c7.83692,2.93994,12.51563,12.19629,12.51563,24.76074C616.92383,285.09375,607.91992,296.66455,596.85156,296.66455Z" transform="translate(-157.26064 -11)" fill="#86efac" style="user-select: auto;"/><path d="M604.92431,241.16809a14.16536,14.16536,0,0,1-4.6377,8.07662" transform="translate(-157.26064 -11)" fill="#ffb8b8" style="user-select: auto;"/><rect x="492.47748" y="796.60177" width="44.00788" height="2.17533" transform="translate(-456.71315 298.31344) rotate(-26.21485)" fill="#86efac" style="user-select: auto;"/><circle cx="357.38802" cy="785.66268" r="8.69823" fill="#86efac" style="user-select: auto;"/><path d="M872.46215,781.78375C834.538,760.64234,810.929,731.7785,802.29023,695.99494c-6.41431-26.56824-4.571-56.4652,5.4778-88.86058a237.99265,237.99265,0,0,1,33.09563-66.85062c76.80336-108.713,83.73529-179.55063,76.02612-219.833-8.45242-44.16856-35.91416-62.51213-36.19075-62.6921l1.18549-1.82311c.2835.18423,28.46885,18.95411,37.12461,64.01882,4.9899,25.98,2.64227,55.60409-6.97759,88.04884-11.9728,40.379-35.31956,85.30675-69.3915,133.53561a235.8352,235.8352,0,0,0-32.79514,66.239C793.36372,660.91,791.032,733.89891,873.52076,779.88526Z" transform="translate(-157.26064 -11)" fill="none" style="user-select: auto;"/><path d="M803.19806,580.4833c-29.898-16.66593-29.06558-43.07915-23.10254-62.30189a84.46785,84.46785,0,0,1,11.74717-23.73006c26.90643-38.08553,29.33794-62.82642,26.63992-76.875C815.55205,402.321,806.15145,396.058,806.057,395.99639l1.185-1.8231c.41782.27128,10.27287,6.83743,13.376,22.99317,4.04066,21.03682-5.043,47.46118-26.9988,78.53993a82.282,82.282,0,0,0-11.44669,23.11847c-5.72466,18.45506-6.54012,43.8033,22.08428,59.76Z" transform="translate(-157.26064 -11)" fill="none" style="user-select: auto;"/><path d="M937.71265,339.10859,936.654,337.209c28.62441-15.95719,27.80895-41.30543,22.08428-59.75943a82.28429,82.28429,0,0,0-11.44668-23.119c-21.95581-31.07821-31.03946-57.50311-26.9988-78.53993,3.10309-16.15574,12.95815-22.72188,13.376-22.99317l1.18656,1.822c-.095.06264-9.54342,6.40793-12.44371,21.667-2.66829,14.04065-.21024,38.7603,26.65637,76.789a84.47875,84.47875,0,0,1,11.74717,23.72953C966.77823,296.02784,967.61068,322.44106,937.71265,339.10859Z" transform="translate(-157.26064 -11)" fill="none" style="user-select: auto;"/><path d="M1001.54718,230.92122a32.61835,32.61835,0,0,1-54.63713-35.64562c9.84327-15.08763,59.39963-31.35061,59.39963-31.35061S1011.39045,215.8336,1001.54718,230.92122Z" transform="translate(-157.26064 -11)" fill="none" style="user-select: auto;"/><path d="M989.58712,129.80434A32.61835,32.61835,0,0,1,934.95,94.15872c9.84327-15.08763,59.39963-31.35061,59.39963-31.35061S999.43039,114.71672,989.58712,129.80434Z" transform="translate(-157.26064 -11)" fill="none" style="user-select: auto;"/><path d="M937.01346,500.25831a33.70467,33.70467,0,0,1-14.54872-64.1335c16.418-7.8233,65.66142,3.62922,67.7505,4.1203l1.32034.31111-.59036,1.22106c-.93438,1.93088-23.06962,47.3842-39.48922,55.20645h0A33.50141,33.50141,0,0,1,937.01346,500.25831Zm2.74261-64.683c-6.67869,0-12.5313.69069-16.35589,2.51273a31.53147,31.53147,0,0,0,27.12037,56.93346c14.2838-6.805,34.15-45.53243,37.85937-52.96234C982.44449,440.741,958.01842,435.57534,939.75607,435.57534Z" transform="translate(-157.26064 -11)" fill="none" style="user-select: auto;"/><path d="M870.54287,200.99367A32.61835,32.61835,0,1,1,826.588,249.19946c-13.31166-12.13779-21.40779-63.66225-21.40779-63.66225S857.2312,188.85588,870.54287,200.99367Z" transform="translate(-157.26064 -11)" fill="none" style="user-select: auto;"/><path d="M794.43339,337.99073a32.61835,32.61835,0,0,1-43.95485,48.2058c-13.31166-12.1378-21.40779-63.66226-21.40779-63.66226S781.12172,325.85294,794.43339,337.99073Z" transform="translate(-157.26064 -11)" fill="none" style="user-select: auto;"/><path d="M879.74394,357.20423c-10.88712,0-31.7052-10.3095-32.66029-10.78571l-1.21416-.60523.85527-1.0533c.73105-.89987,18.01124-22.07047,27.73038-24.175h0a18.6085,18.6085,0,0,1,7.87427,36.37445A12.33991,12.33991,0,0,1,879.74394,357.20423Zm-30.45122-12.13207c5.12741,2.44744,24.76478,11.45465,32.57693,9.76161a16.43363,16.43363,0,0,0-6.95475-32.123C867.10008,324.40272,852.94848,340.72358,849.29272,345.07216Z" transform="translate(-157.26064 -11)" fill="none" style="user-select: auto;"/></svg>