<svg xmlns="http://www.w3.org/2000/svg" xmlns:xlink="http://www.w3.org/1999/xlink" x="0" y="0" version="1.1" viewBox="0 0 600 600" xml:space="preserve" style="enable-background:new 0 0 600 600"><style type="text/css">.st0{fill:#efd4a6}.st1{opacity:.5}.st2{fill:#e09433}.st3{fill:#e9b36b}.st4,.st5{opacity:.4;fill:#d9ba90}.st5{fill:#c27d33}.st6{fill:#c37531}.st7{fill:#fff}.st8{opacity:.4;fill:#a45d2f}.st9{fill:#cb8173}.st10{fill:#bc6a5c}.st11{fill:#1a2d3c}.st12{fill:#ba233e}.st13{fill:#8f2429}.st14{fill:#ce5d79}.st15{fill:#c17d34}.st16{fill:#c27d33}.st17{fill:#416050}.st18{fill:#304b3b}.st19{fill:#5b8a72}.st20{fill:#4a775f}.st21{fill:#82be9b}.st22{fill:#6d1b1f}.st23{fill:#cb7830}.st24{fill:#e5a75c}.st25{fill:#fafcff}.st26{fill:#ddb987}.st27{fill:#f1d5a7}</style><switch><g><linearGradient id="SVGID_1_" x1="0" x2=".707" y1="0" y2=".707" gradientUnits="userSpaceOnUse"><stop offset="0" style="stop-color:#dddee2"/><stop offset=".181" style="stop-color:#d9dade"/><stop offset=".366" style="stop-color:#cdced2"/><stop offset=".553" style="stop-color:#b8babd"/><stop offset=".742" style="stop-color:#9b9ea0"/><stop offset=".93" style="stop-color:#777a7c"/><stop offset="1" style="stop-color:#676b6c"/></linearGradient><g id="BACKGROUND"><g><path d="M145.7230072,113.0454941c-31.438652,3.2821198-28.8762436,33.2790909-30.7765274,71.960289 s-41.1990585,22.9131317-50.3579102,65.9333954s-7.1582298,156.1924438,7.1900101,175.8976746 s68.7488861,8.6732178,79.3481293,60.924469c9.0513611,44.620697,83.9531403,48.6902771,82.3167419-1.8114929 c-1.2970276-40.0280762,75.1872253-46.8702393,79.9522705,2.2668457s42.8991699,18.9819336,103.8992615,25.4712524 c61.0000916,6.4892578,70.6452637-20.025116,69.7211304-49.4540405s39.0792847-12.5980225,47.5175171-44.4877319 s8.7230835-175.2728271,0-193.7046051c-8.7230225-18.4317627-23.9762268-6.7955017-27.6318054-61.9815216 s-72.8667603-54.7908249-77.772644-9.372757s-40.1915588,48.0093079-43.980011,6.515152 c-3.7884827-41.4941559-24.4055481-50.6578827-63.8065186-51.4931564s-64.7208252-1.8328705-79.3723755,6.9756775 c-18.1811066,10.930542-15.2016144,54.4621506-31.2690125,55.2450485 C166.3579254,174.0906372,201.6923828,107.2024307,145.7230072,113.0454941z" class="st0"/><g class="st1"><g><path d="M448.5270996,146.9633789c-25.3248291,0-27.0459595,45.1533356-26.3083191,69.9249725 c0.7376099,24.7716217-1.710144,88.3062592,6.8843994,110.9263153 c12.2936096,32.3556824,54.0918884,36.2896423,51.1414185-2.8040161s2.7347412-119.6906891,0.138031-143.8106995 C477.7858887,157.0799408,468.4176331,146.9633789,448.5270996,146.9633789z" class="st2"/><path d="M452.0922241,162.1203156c-18.4403992,0-15.3670044,19.4239044-15.3670044,27.7835541 s3.3192749,22.3634186,15.3670044,22.3634186c12.04776,0,14.1376648-5.3982391,14.1376648-25.8056335 S458.5939026,162.1203156,452.0922241,162.1203156z" class="st3"/><path d="M450.8897095,362.4727478c-22.3141479,4.9938049-19.4238892,30.4802856-20.161499,42.804657 c-0.7376404,12.3243408-3.6880798,25.0326843-23.6037292,33.4308472 c-19.9156494,8.3981323-18.7307129,25.2462158-15.8076782,35.7268982 c2.9230347,10.4806519,20.7250977,20.3704529,56.8683167,11.519043 c36.143219-8.8513794,35.4056091-84.8611755,35.159729-98.9811707 C483.0989685,372.8529968,467.6090393,358.7310181,450.8897095,362.4727478z" class="st2"/></g><g><path d="M230.4880829,182.6880493c-34.0160065-0.581665-38.009964,54.2618866,0.1927795,54.2618866 S275.3750916,183.4556122,230.4880829,182.6880493z" class="st2"/><path d="M219.9155426,244.2646332c-20.3305511,0-17.3649597,25.4477692-18.2023468,47.5762787 c-0.8373871,22.128479,2.5603027,89.2654114,2.2974854,110.6424866 c-0.2628021,21.3770447,7.5605774,26.4468689,28.5826416,26.4468689s31.3892517-11.5446777,31.3892517-83.3807068 S260.5920105,244.2646332,219.9155426,244.2646332z" class="st2"/></g></g></g></g><g id="SHADOW"><path d="M115.2248077,551.7502441c-36.5691757,0-42.1952057,14.2213745,1.4065094,17.7767334 c43.6017151,3.5552979,79.4676361,3.5552979,100.5652313,13.0362549 c21.0976105,9.480896,130.80513,14.2213745,148.3864899,1.1851196 c17.5813293-13.0363159,37.9756775-11.258606,83.6871338-10.6660767 c45.7114868,0.5925903,31.8001099-2.3310547,14.8305969-6.3822632 c-30.0439148-7.1725464,55.494751-0.1358643,59.0110474-10.8018799 C526.6280518,545.2321167,115.2248077,551.7502441,115.2248077,551.7502441z" class="st4"/></g><g id="CHESS"><g><g><polygon points="219.743 454.064 214.592 509.952 115.554 512.46 107.377 462.496 133.426 433.148 130.437 326.524 130.092 314.04 187.915 314.04 188.415 331.258 191.268 429.432" class="st2"/><path d="M191.2678375,429.4320374l-57.841507,3.7161255c0,0,30.0565033-15.5279541,33.9180603-44.8302917 c2.3078156-17.4814453,1.2084503-50.5-0.0454254-74.2780457h20.6161346L191.2678375,429.4320374z" class="st5"/><path d="M188.4148254,331.257782c-17.4633179-1.2266235-44.8030701-3.5798645-57.9777679-4.7338257 l-0.3452759-12.4841309h57.8233185L188.4148254,331.257782z" class="st5"/><g><g><path d="M120.5498047,476.8164063c-0.7749023,0-1.4316406-0.5957031-1.4936523-1.3813477 c-0.065918-0.8256836,0.5507813-1.5483398,1.3764648-1.6137695l85.862793-6.8144531 c0.8320313-0.0737305,1.5483398,0.5507813,1.6137695,1.3764648c0.065918,0.8256836-0.5507813,1.5483398-1.3764648,1.6137695 l-85.862793,6.8144531C120.6293945,476.8149414,120.5893555,476.8164063,120.5498047,476.8164063z" class="st6"/></g><g><path d="M131.453125,493.6254883c-0.7832031,0-1.4428711-0.6079102-1.4951172-1.4008789 c-0.0546875-0.8266602,0.5708008-1.5410156,1.3974609-1.5957031l68.5996094-4.5429688 c0.8310547-0.0561523,1.5410156,0.5708008,1.5957031,1.3974609s-0.5708008,1.5410156-1.3974609,1.5957031 l-68.5996094,4.5429688C131.5200195,493.6245117,131.4863281,493.6254883,131.453125,493.6254883z" class="st6"/></g></g><polygon points="219.743 454.064 214.592 509.952 115.554 512.46 107.377 462.496" class="st5"/></g><g><polygon points="171.887 263.912 175.367 283.302 139.478 286.173 138.723 266.338 116.008 271.944 113.056 242.124 111.62 227.568 133.726 228.023 132.5 224.243 126.73 206.516 170.07 202.436 169.107 220.109 168.862 224.697 174.622 223.498 194.257 219.391 195.566 247.467 196.147 260.033 196.574 269.219" class="st2"/><polygon points="146.512 255.995 123.216 261.741 120.662 235.937 145.061 236.438 137.666 213.699 161.389 211.464 160.115 234.872 186.537 229.359 187.911 258.992 161.682 253.361 165.727 275.868 147.327 277.344" class="st7"/><path d="M171.8873901,263.9122925l3.47995,19.3895569l-35.8897095,2.8711548l-0.7541504-19.8346863 l-22.7149963,5.6060486l-2.9529495-29.820282c9.8128662,7.5323334,36.6438522,23.4328308,83.0914841,17.9085388 l0.4270172,9.1859436L171.8873901,263.9122925z" class="st5"/><polygon points="126.73 206.516 170.07 202.436 169.107 220.109 132.5 224.243" class="st5"/><polygon points="195.566 247.467 174.622 223.498 194.257 219.391" class="st5"/><circle cx="153.034" cy="246.652" r="4.013" class="st2"/><circle cx="135.013" cy="247.409" r="4.013" class="st2"/><circle cx="172.493" cy="244.305" r="4.013" class="st2"/></g><g><g><polygon points="198.846 279.513 198.846 319.192 126.539 322.072 116.617 322.462 112.983 284.21" class="st6"/><g><path d="M120.7016602,296.762207c-0.7832031,0-1.4423828-0.6079102-1.4951172-1.4008789 c-0.0551758-0.8261719,0.5708008-1.5410156,1.3974609-1.5957031l68.4477539-4.5429688 c0.8330078-0.0546875,1.5405273,0.5708008,1.5957031,1.3974609c0.0551758,0.8261719-0.5708008,1.5410156-1.3974609,1.5957031 l-68.4477539,4.5429688C120.7685547,296.7612305,120.7348633,296.762207,120.7016602,296.762207z" class="st2"/></g><g><path d="M123.8818359,308.5737305c-0.8066406,0-1.4726563-0.640625-1.4980469-1.4526367 c-0.0263672-0.828125,0.6235352-1.5205078,1.4516602-1.5463867l62.390625-1.9682617 c0.8457031-0.0063477,1.5205078,0.6240234,1.5463867,1.4516602c0.0263672,0.828125-0.6235352,1.5205078-1.4516602,1.5463867 l-62.390625,1.9682617C123.9140625,308.5737305,123.8979492,308.5737305,123.8818359,308.5737305z" class="st2"/></g></g><path d="M198.8455353,284.0196228v35.171936l-72.3063507,2.880249l7.1869965-19.843811 c0,0,20.1406403,7.4202576,26.9551392-12.7203979L198.8455353,284.0196228z" class="st8"/></g><g><polygon points="238.079 504.437 237.779 509.816 235.017 559.362 94.484 559.362 89.032 509.952" class="st6"/><g><g><path d="M103.6166992,528.4765625c-0.7924805,0-1.4545898-0.6206055-1.496582-1.4213867 c-0.043457-0.8271484,0.5922852-1.5332031,1.4194336-1.5766602l124.8012695-6.5473633 c0.8295898-0.0356445,1.5336914,0.5913086,1.5766602,1.4194336c0.043457,0.8271484-0.5922852,1.5332031-1.4194336,1.5766602 l-124.8012695,6.5473633C103.6699219,528.4760742,103.6435547,528.4765625,103.6166992,528.4765625z" class="st2"/></g><g><path d="M106.6855469,541.1186523c-0.8178711,0-1.4868164-0.6567383-1.4995117-1.4770508 c-0.0126953-0.828125,0.6489258-1.5102539,1.4770508-1.5229492l116.7490234-1.7851563 c0.8701172,0.0131836,1.5102539,0.6494141,1.5229492,1.4770508c0.0126953,0.828125-0.6489258,1.5102539-1.4770508,1.5229492 l-116.7490234,1.7851563C106.7011719,541.1186523,106.6933594,541.1186523,106.6855469,541.1186523z" class="st2"/></g></g><path d="M237.7790833,509.8158569l-2.7621765,49.5459595H123.4590149l7.5413666-26.5765381 c0,0,24.5322113,3.8615723,33.8453522-13.8561401L237.7790833,509.8158569z" class="st8"/></g></g></g><g id="RIGHT_ARM"><g><g><path d="M205.6600342,193.0415039l-0.6541595,1.1630249l-9.7947388,17.4632721l-14.6920471-2.5713043 c0,0-7.7230988,8.9315033-7.7230988,9.3858032s-6.9689484-2.1170044-6.9689484-2.1170044l1.6717987-12.5659485 l-15.6006622,15.5915527l-9.4312592-4.5520325l-12.8294373-6.1966705l27.7123108-28.7754059 C168.4074402,179.8667908,205.6600342,193.0415039,205.6600342,193.0415039z" class="st9"/><path d="M205.0058746,194.2045288l-9.7947388,17.4632721l-14.6920471-2.5713043 c0,0-7.7230988,8.9315033-7.7230988,9.3858032s-6.9689484-2.1170044-6.9689484-2.1170044l1.6717987-12.5659485 l-15.6006622,15.5915527l-9.4312592-4.5520325c8.4953766-5.0336914,23.9688721-18.9170685,23.9688721-18.9170685 s11.6573486,4.5429993,14.5375977,5.2971039c2.880249,0.7632446,7.2687988-6.8144989,19.3804626-7.5686035 C201.9711304,193.5503693,203.5339508,193.7502289,205.0058746,194.2045288z" class="st10"/><g><path d="M141.8276367,207.3476563c-0.1875,0-0.375-0.0698242-0.5205078-0.2099609 c-0.2983398-0.2871094-0.3071289-0.762207-0.0195313-1.0605469l15.9008789-16.5058594 c0.2871094-0.2978516,0.7626953-0.3061523,1.0605469-0.0195313c0.2983398,0.2871094,0.3071289,0.762207,0.0195313,1.0605469 l-15.9008789,16.5058594C142.2207031,207.2709961,142.0244141,207.3476563,141.8276367,207.3476563z" class="st11"/></g><g><path d="M150.6103516,209.7709961c-0.1743164,0-0.3491211-0.0605469-0.4912109-0.1835938 c-0.3125-0.2714844-0.3461914-0.7451172-0.074707-1.0581055l11.4335938-13.1748047 c0.2714844-0.3134766,0.7446289-0.3466797,1.0581055-0.074707c0.3125,0.2714844,0.3461914,0.7451172,0.074707,1.0581055 l-11.4335938,13.1748047C151.0288086,209.6835938,150.8203125,209.7709961,150.6103516,209.7709961z" class="st11"/></g><g><path d="M170.1455078,197.1259766c-0.4023438,0-0.7348633-0.3188477-0.7490234-0.7241211 c-0.0488281-1.4135742-0.2270508-3.1113281-0.4335938-3.7407227 c-0.6738281,0.0537109-2.2592773,0.3222656-3.5917969,0.5888672 c-0.2280273,0.0444336-0.4619141-0.0170898-0.6362305-0.1669922 c-0.1748047-0.1503906-0.2709961-0.3735352-0.2597656-0.6040039c0.0859375-1.8061523,0.0258789-3.9960938-0.1943359-4.5888672 c-0.3032227-0.0776367-1.1547852-0.1264648-1.7358398-0.1601563c-1.8847656-0.1083984-2.9677734-0.2070313-3.3061523-0.96875 c-0.3271484-0.7353516-0.2275391-3.6147461-0.1391602-5.265625c0.0224609-0.4130859,0.3735352-0.7216797,0.7890625-0.7089844 c0.4135742,0.0224609,0.730957,0.3754883,0.7089844,0.7890625c-0.0922852,1.7167969-0.1181641,3.7753906-0.0146484,4.4414063 c0.4023438,0.1206055,1.4155273,0.1791992,2.0483398,0.215332c1.3310547,0.0766602,2.105957,0.1347656,2.5546875,0.4335938 c0.2646484,0.1767578,0.9394531,0.6269531,0.8232422,4.9331055c1.15625-0.2148438,2.8330078-0.5,3.3862305-0.4360352 c0.4960938,0.0551758,1.3261719,0.1474609,1.5,5.1870117c0.0141602,0.4140625-0.3095703,0.7612305-0.7236328,0.7753906 C170.1630859,197.1259766,170.1542969,197.1259766,170.1455078,197.1259766z M160.6162109,186.1679688h0.0097656H160.6162109z" class="st11"/></g></g><g><path d="M285.6895447,206.1435547c-4.6974487,12.4114532-14.5375977,26.7309875-22.7422791,37.4343262 c-7.2506104,9.4676056-13.2201233,16.1003723-13.2201233,16.1003723 c-3.5162811-0.6087341-10.3125916-4.2250061-18.2265167-9.0859985 c-19.6984406-12.0752716-46.2840881-31.8010101-46.2840881-31.8010101 c1.4447021-4.5611877,3.8252258-9.3585663,6.4147186-13.774353 c5.5606232-9.5039673,12.0571289-17.2724915,12.0571289-17.2724915l30.6652527,15.2190552l55.6517639-67.2364044 c0,0,0.7268677,7.5413666,1.0267334,18.0901947C291.4955139,169.5996246,291.0048218,192.1147614,285.6895447,206.1435547z" class="st12"/><path d="M285.6895447,206.1435547c-4.6974487,12.4114532-14.5375977,26.7309875-22.7422791,37.4343262 c-7.2506104,9.4676056-13.2201233,16.1003723-13.2201233,16.1003723 c-3.5162811-0.6087341-10.3125916-4.2250061-18.2265167-9.0859985 c-19.6984406-12.0752716-46.2840881-31.8010101-46.2840881-31.8010101 c1.4447021-4.5611877,3.8252258-9.3585663,6.4147186-13.774353 c13.5835724,8.6589355,45.8570709,29.22966,47.6469879,30.4290161 c2.2714996,1.5173492-1.5173492-15.600708-1.2174988-20.7433624 c0.3088989-5.1517487,13.1746979,10.2944641,13.1746979,10.2944641s0-13.9288635,10.9031982-24.8320618 c10.0400391-10.0400238,23.9234009-25.7224731,28.8934937-46.347702 C291.4955139,169.5996246,291.0048218,192.1147614,285.6895447,206.1435547z" class="st13"/><g><path d="M235.8295898,230.9716797c-0.3984375,0-0.7299805-0.3129883-0.7485352-0.715332 c-0.0375977-0.800293-0.9052734-19.6513672-0.3359375-24.0942383c0.0405273-0.315918,0.2763672-0.5717773,0.5874023-0.6381836 c0.3115234-0.0683594,0.6308594,0.0703125,0.796875,0.3427734c0.2709961,0.4433594,6.6650391,10.9628906,9.2749023,19.2456055 c0.1245117,0.3955078-0.0947266,0.8164063-0.4897461,0.940918c-0.3969727,0.1245117-0.8164063-0.0957031-0.940918-0.4897461 c-1.8710938-5.9384766-5.8623047-13.2695313-7.8891602-16.8085938 c-0.1855469,6.6625977,0.4868164,21.2626953,0.4946289,21.4321289 c0.0195313,0.4135742-0.300293,0.7646484-0.7143555,0.7836914 C235.8530273,230.9711914,235.8413086,230.9716797,235.8295898,230.9716797z" class="st11"/></g><path d="M262.9472656,243.5778809c-7.2506104,9.4676056-13.2201233,16.1003723-13.2201233,16.1003723 c-3.5162811-0.6087341-10.3125916-4.2250061-18.2265167-9.0859985 C235.7438354,245.3041992,246.8196106,235.7002869,262.9472656,243.5778809z" class="st14"/><g><path d="M241.9638672,249.2568359c-0.2094727,0-0.4174805-0.0869141-0.565918-0.2573242l-6.9282227-7.9501953 c-0.2719727-0.3120117-0.2397461-0.7861328,0.0727539-1.0581055c0.3120117-0.2734375,0.7856445-0.2397461,1.0581055,0.0727539 l6.9282227,7.9501953c0.2719727,0.3120117,0.2397461,0.7861328-0.0727539,1.0581055 C242.3139648,249.1962891,242.1386719,249.2568359,241.9638672,249.2568359z" class="st11"/></g><g><path d="M244.0078125,245.0546875c-0.2368164,0-0.4702148-0.1118164-0.6157227-0.3212891l-2.6118164-3.7480469 c-0.2368164-0.3398438-0.1533203-0.8071289,0.1865234-1.0439453c0.3393555-0.2373047,0.8076172-0.1538086,1.0439453,0.1865234 l2.6118164,3.7480469c0.2368164,0.3398438,0.1533203,0.8071289-0.1865234,1.0439453 C244.3056641,245.0112305,244.1557617,245.0546875,244.0078125,245.0546875z" class="st11"/></g><g><path d="M255.2524414,244.8276367c-0.0219727,0-0.043457-0.0009766-0.0654297-0.0029297 c-0.4125977-0.0356445-0.7182617-0.3989258-0.6826172-0.8115234l0.5678711-6.5874023 c0.0361328-0.4125977,0.4033203-0.7172852,0.8115234-0.6826172c0.4125977,0.0356445,0.7182617,0.3989258,0.6826172,0.8115234 l-0.5678711,6.5874023C255.9648438,244.5327148,255.637207,244.8276367,255.2524414,244.8276367z" class="st11"/></g><circle cx="219.419" cy="234.367" r="3.123" class="st11"/><circle cx="206.471" cy="226.19" r="3.123" class="st11"/><g><path d="M193.2387695,220.8632813c-0.0932617,0-0.1879883-0.0175781-0.2797852-0.0541992 c-0.3842773-0.1547852-0.5703125-0.5917969-0.4155273-0.9760742 c0.0664063-0.1645508,6.7265625-16.581543,15.4345703-27.8896484c0.253418-0.3276367,0.7236328-0.3896484,1.0517578-0.1367188 s0.3896484,0.7236328,0.1367188,1.0517578c-8.5800781,11.1425781-15.1660156,27.3725586-15.2314453,27.5351563 C193.8173828,220.6860352,193.5361328,220.8632813,193.2387695,220.8632813z" class="st11"/></g></g><g><g><path d="M130.644043,195.1683655c8.333847-8.1339417,16.3267975-15.8656311,27.5085602-19.8336639 c0.8073578-0.286499,0.4899597-1.5300446-0.3582611-1.2995148 c-11.3363342,3.0809784-20.1392822,12.061142-27.7924957,20.4909821 C129.6103516,194.9573975,130.2230682,195.5792389,130.644043,195.1683655L130.644043,195.1683655z" class="st7"/></g><g><path d="M164.507782,175.2720947c0.4058685-0.0433044,0.7936554-0.0105591,1.176651,0.1414795 c0.430481,0.1708832,0.7021637,0.5000916,1.2055206,0.3298492c0.2688293-0.0909424,0.506424-0.3420563,0.4911041-0.64505 c-0.0663452-1.3122406-2.1157379-1.3259583-3.0446167-1.0923157 C163.6507874,174.1785126,163.770874,175.3507233,164.507782,175.2720947L164.507782,175.2720947z" class="st7"/></g><g><path d="M178.7015686,177.4992523c5.8579102,0.1457977,11.1940918,4.0411987,16.953125,4.8317413 c0.6269073,0.0860596,1.1375732-0.7566833,0.4703217-1.1155701c-2.7052155-1.4550323-5.8590088-2.1382446-8.7808075-3.063797 c-2.941864-0.9319153-5.5279083-1.7603455-8.6426392-1.5605774 C178.1223145,176.6282043,178.1121216,177.4845886,178.7015686,177.4992523L178.7015686,177.4992523z" class="st7"/></g><g><path d="M209.8774109,185.21138c5.6087799,4.0566559,13.1929169,8.3857422,20.4272461,8.0166931 c6.1350861-0.3129578,10.7915344-7.2744141,13.93013-11.8783112c0.4942474-0.7249908-0.554657-1.4007111-1.1503143-0.8875732 c-4.879776,4.2037811-8.0599823,11.644577-15.5307159,10.6343689 c-6.1828003-0.8360596-11.6966858-3.9788361-17.2770996-6.5681915 C209.8123779,184.3129272,209.4638062,184.9122314,209.8774109,185.21138L209.8774109,185.21138z" class="st7"/></g><g><path d="M249.3270111,174.4627686c2.3572235-2.1019287,5.7601624-4.819046,6.5285339-8.0252228 c0.0897675-0.3745575-0.3532104-0.8215179-0.7172852-0.5514221c-1.245163,0.9237671-1.9996338,2.1975555-2.9345245,3.420578 c-1.1612091,1.5190735-2.3093719,3.0185394-3.6086884,4.4241028 C248.1404877,174.2225494,248.8303986,174.9055939,249.3270111,174.4627686L249.3270111,174.4627686z" class="st7"/></g><g><path d="M260.49823,156.4251404c4.7035828-2.486969,7.6717529-7.2041321,11.1680908-11.0699768 c4.4876404-4.9619293,9.3185425-8.1907501,15.0089111-11.5701599c0.5653992-0.3357697,0.183197-1.1689301-0.4364319-1.0352478 c-5.0662231,1.0929565-9.4680176,5.0078278-13.0424805,8.5849762 c-4.3773804,4.3807068-7.8880005,10.9736633-13.2106934,14.2134399 C259.4257507,155.8889465,259.9204712,156.7306061,260.49823,156.4251404L260.49823,156.4251404z" class="st7"/></g><g><path d="M232.7368774,176.3737488c10.4105072-11.2100983,20.5655365-22.891037,30.1496582-34.8196564 c0.5888977-0.7329559-0.3971863-1.7819366-1.0565186-1.0565186 c-10.3028107,11.335968-20.2631683,23.2004395-29.7284393,35.2408905 C231.7542114,176.1803284,232.3333435,176.8082733,232.7368774,176.3737488L232.7368774,176.3737488z" class="st7"/></g><g><path d="M210.4329071,250.5571136c8.3752594,7.7061005,19.8650818,16.6036835,31.5353088,18.1110077 c9.4838867,1.2249146,20.1461639-5.6590576,23.7355499-14.40625c0.2901917-0.7071686-0.7589722-1.2245789-1.2404785-0.7221069 c-3.2348938,3.3758545-5.4942627,7.3120728-9.4819336,9.9824524 c-5.0883179,3.4074097-10.914917,4.3277588-16.7587738,2.4776917 c-9.9796295-3.1593628-19.5176392-9.023468-27.4720154-15.760437 C210.5327301,250.0549774,210.2176666,250.3590546,210.4329071,250.5571136L210.4329071,250.5571136z" class="st7"/></g></g></g></g><g id="HEAD"><g><g><polygon points="326.449 146.195 335.881 146.376 335.887 129.177 335.891 126.709 326.289 127.015 326.379 138.078" class="st10"/><path d="M326.3791199,138.0781708c5.0350647-1.7928009,7.9599304-5.8649445,9.5081787-8.9010162 l0.0039978-2.4684906l-9.602417,0.3062897L326.3791199,138.0781708z" class="st11"/></g><g><g><path d="M321.5932312,131.10672c1.1350403,1.0292358,2.6452026,1.5390778,4.3189087,1.5967865 c3.4532471,0.1538696,7.5797729-1.5967865,10.3981323-4.5979156c1.0581055-1.1157684,1.8276367-2.3662872,2.3951721-3.6359406 c1.7410278-3.7514267,1.6929016-7.5316849,1.6929016-7.5316849c0.2981873-2.2316132,0.3174438-4.2612-0.0480957-6.0407486 c-0.4617004-2.2411804-1.5390015-4.0495605-3.4243469-5.2711868 c-1.1157837-0.7117996-2.5105591-1.2216339-4.2227478-1.4909286 c-7.6759338-1.192749-11.9083252,4.7325211-12.5335083,10.5712509 C319.5443726,120.5450897,318.101532,127.9612885,321.5932312,131.10672z" class="st9"/><path d="M325.9121399,132.7035065c3.4532471,0.1538696,7.5797729-1.5967865,10.3981323-4.5979156 c1.0581055-1.1157684,1.8276367-2.3662872,2.3951721-3.6359406c1.7410278-3.7514267,1.6929016-7.5316849,1.6929016-7.5316849 c0.2981873-2.2316132,0.3174438-4.2612-0.0480957-6.0407486c-0.4617004-2.2411804-1.5390015-4.0495605-3.4243469-5.2711868 c-0.1058044,0.1057968-0.1924133,0.2308426-0.2501221,0.3751526 c-0.8079529,2.0007095-2.6452026,3.8475952-2.6452026,3.8475952S333.049469,126.4607315,325.9121399,132.7035065z" class="st10"/></g><path d="M335.7488708,121.663475l-0.179718,2.6959991l3.1392212,0.111702 c1.7357483-3.7569046,1.6875916-7.5373535,1.6875916-7.5373535c0.302887-2.2280884,0.3238831-4.259697-0.0438232-6.0342331 c-2.0341492-0.2686615-5.4562378,3.3125763-5.4562378,3.3125763l-0.5112305,6.2191238L335.7488708,121.663475z" class="st11"/><g><path d="M319.9579773,112.1765594c0,0,5.3097229,2.7029343,12.2930908,3.3089294 c3.087738,0.2789307,6.4928284,0.14431,9.9171753-0.8175888c0,0,0.2885742-1.356308,0.3270264-3.2801056 c0.1346741-4.3285446-0.8945618-11.5716095-9.0418091-12.8125c-0.0577087-0.0096283-0.125061-0.0191956-0.1827698-0.0288239 c-8.3492737-1.1446609-11.4754333,5.1268768-12.6297302,9.5516434 C320.0349426,110.3874359,319.9579773,112.1765594,319.9579773,112.1765594z" class="st12"/><path d="M332.2510681,115.4854889c3.087738,0.2789307,6.4928284,0.14431,9.9171753-0.8175888 c0,0,0.2885742-1.356308,0.3270264-3.2801056c0.1346741-4.3285446-0.8945618-11.5716095-9.0418091-12.8125 c-0.0577087-0.0096283-0.125061-0.0191956-0.1827698-0.0288239 C334.8482056,105.1835327,333.7035522,111.2339172,332.2510681,115.4854889z" class="st13"/><path d="M319.9579773,112.1765594c0,0,5.6559753,2.8760681,12.9568176,3.3570175 c2.9049377,0.2020187,6.0791931,0.0192566,9.2534485-0.8656769c0,0,0.2885742-1.356308,0.3270264-3.2801056 c-2.0296021,0.2981873-5.0499573,0.5867462-8.4550781,0.4039764c-4.2419434-0.211586-9.0995789-1.1446609-13.399231-3.6936569 C320.0349426,110.3874359,319.9579773,112.1765594,319.9579773,112.1765594z" class="st2"/><path d="M332.9147949,115.533577c2.9049377,0.2020187,6.0791931,0.0192566,9.2534485-0.8656769 c0,0,0.2885742-1.356308,0.3270264-3.2801056c-2.0296021,0.2981873-5.0499573,0.5867462-8.4550781,0.4039764 C333.7131958,113.1673431,333.3187866,114.4178009,332.9147949,115.533577z" class="st15"/><path d="M347.7053833,113.0981064v0.0000076c0.435791,0.924202,0.1178894,2.0280609-0.7527161,2.5629196 c-2.5774231,1.5834045-8.5430298,4.2104645-17.8204956,2.3535004 c-8.8329163-1.7679749-12.6531067-5.028511-14.1716003-6.8771667c-0.5899658-0.7182007-0.58255-1.7495041,0.0154724-2.4609985 l0,0c0.7254333-0.8630676,2.0212402-0.9175644,2.8254089-0.1273575 c1.8632813,1.8308945,5.6988525,4.6929855,12.0325012,5.5226669 c7.2593079,0.9509354,12.6685181-0.8149643,15.2691345-1.9654541 C346.090271,111.6695023,347.2449951,112.1217346,347.7053833,113.0981064z" class="st12"/></g><path d="M337.2156677,121.4184494c0,0,2.3939209-3.5152817,5.1833496-1.6509933 c2.7894592,1.8642883-0.1226501,11.7181396-7.4233093,7.4176941L337.2156677,121.4184494z" class="st10"/></g></g></g><g id="RIGHT_LEG"><g><polygon points="294.056 490.498 303.029 524.456 325.403 521.276 320.519 481.752" class="st9"/><g><path d="M337.6705933,563.2960205h-19.3804626l-2.0897827-7.8320923l-3.870636,7.8320923h-56.2059937 c0,0,29.6385193-22.3696899,43.0403748-44.1761475l14.7647705-1.4446411l13.1746826-1.2811279 C327.1035461,516.394104,337.8977356,540.244873,337.6705933,563.2960205z" class="st2"/><path d="M337.6705933,563.2960205h-19.3804626l-2.0897827-7.8320923l-3.870636,7.8320923h-4.570282 c5.3244324-15.2735596,6.2057495-34.2178345,6.1694336-45.6207886l13.1746826-1.2811279 C327.1035461,516.394104,337.8977356,540.244873,337.6705933,563.2960205z" class="st16"/><g><path d="M295.0209961,544.7412109c-0.1293945,0-0.2597656-0.0332031-0.3793945-0.1030273l-12.3793945-7.2685547 c-0.3569336-0.2099609-0.4765625-0.6694336-0.2670898-1.0268555c0.2104492-0.3574219,0.6704102-0.4746094,1.0268555-0.2670898 l12.3793945,7.2685547c0.3569336,0.2099609,0.4765625,0.6694336,0.2670898,1.0268555 C295.5288086,544.6088867,295.277832,544.7412109,295.0209961,544.7412109z" class="st11"/></g><g><path d="M299.949707,539.1230469c-0.1293945,0-0.2597656-0.0332031-0.3793945-0.1030273l-12.3798828-7.2685547 c-0.3569336-0.2099609-0.4765625-0.6694336-0.2670898-1.0268555c0.2104492-0.3574219,0.6699219-0.4750977,1.0268555-0.2670898 l12.3798828,7.2685547c0.3569336,0.2099609,0.4765625,0.6694336,0.2670898,1.0268555 C300.4575195,538.9907227,300.206543,539.1230469,299.949707,539.1230469z" class="st11"/></g><g><path d="M304.8769531,533.5048828c-0.1289063,0-0.2597656-0.0332031-0.3789063-0.1030273l-12.3793945-7.2685547 c-0.3569336-0.2099609-0.4765625-0.6694336-0.2670898-1.0268555c0.2109375-0.3579102,0.6708984-0.4741211,1.0268555-0.2670898 l12.3793945,7.2685547c0.3574219,0.2099609,0.4765625,0.6694336,0.2666016,1.0268555 C305.3847656,533.3725586,305.1347656,533.5048828,304.8769531,533.5048828z" class="st11"/></g><g><path d="M334.7158203,556.3261719h-14.7636719c-0.4140625,0-0.75-0.3359375-0.75-0.75s0.3359375-0.75,0.75-0.75 h14.7636719c0.4140625,0,0.75,0.3359375,0.75,0.75S335.1298828,556.3261719,334.7158203,556.3261719z" class="st11"/></g><g><path d="M311.6044922,556.3261719h-41.171875c-0.4140625,0-0.75-0.3359375-0.75-0.75s0.3359375-0.75,0.75-0.75 h41.171875c0.4140625,0,0.75,0.3359375,0.75,0.75S312.0185547,556.3261719,311.6044922,556.3261719z" class="st11"/></g></g><g><g><path d="M333.1639099,297.2307129c-3.4072571,32.4824524-17.7177124,116.4552612-17.7177124,116.4552612 l11.0576477,64.5105896l-31.1740723,10.1127319l-8.9587708,2.9075317l-14.3013611-44.2942505l-7.8049011-24.1506042 c0.0545044-5.8059692,0.1726379-11.7481995,0.3361816-17.7540283 c0.8359375-31.2922058,2.916626-64.1653442,4.6338806-87.5345459 c1.4265137-19.3804626,2.5986023-32.2189941,2.5986023-32.2189941s7.0416565-25.0591431,28.6209106-31.1921997 C322.0335388,247.9391479,336.571167,264.7482605,333.1639099,297.2307129z" class="st17"/><path d="M333.1639099,297.2307129c-3.4072571,32.4824524-17.7177124,116.4552612-17.7177124,116.4552612 l11.0576477,64.5105896l-31.1740723,10.1127319c3.752533-14.2286377,4.3794556-30.3381653,1.3356934-44.9484863 c-4.5429993-21.8063965,9.9945984-52.0899963,6.0603333-58.4501953s-24.532196-5.9058838-28.4664612-16.0549927 c-0.563324-1.4355469,46.338623-29.0751953,41.7956238-32.4006653 c-3.4890137-2.5622559-33.1911316-13.8561401-46.8201599-18.9715576 c1.4265137-19.3804626,2.5986023-32.2189941,2.5986023-32.2189941s7.0416565-25.0591431,28.6209106-31.1921997 C322.0335388,247.9391479,336.571167,264.7482605,333.1639099,297.2307129z" class="st18"/><g><path d="M310.2207031,481.7451172c-0.3388672,0-0.6474609-0.2319336-0.7285156-0.5771484 l-15.6738281-66.1005859c-0.0151367-0.0644531-0.0219727-0.1313477-0.0195313-0.1977539 c0.8989258-26.9663086,7.2080078-100.1582031,7.2714844-100.894043 c0.0351563-0.4125977,0.4130859-0.7163086,0.8115234-0.6826172c0.4130859,0.0356445,0.71875,0.3989258,0.6826172,0.8115234 c-0.0634766,0.7348633-6.3535156,73.7084961-7.2631836,100.7148438l15.6499023,66.0029297 c0.0957031,0.402832-0.1533203,0.8071289-0.5566406,0.902832 C310.3369141,481.7387695,310.2783203,481.7451172,310.2207031,481.7451172z" class="st11"/></g><g><path d="M287.6196289,417.9160156c-0.3374023,0-0.644043-0.2290039-0.7280273-0.5717773 c-0.0986328-0.4023438,0.1479492-0.8081055,0.550293-0.9067383l22.2602539-5.4516602 c0.4052734-0.0957031,0.8085938,0.1469727,0.9072266,0.550293c0.0986328,0.4023438-0.1474609,0.8081055-0.5498047,0.9067383 l-22.2612305,5.4516602C287.7387695,417.9091797,287.6787109,417.9160156,287.6196289,417.9160156z" class="st11"/></g><g><path d="M290.7993164,422.3452148c-0.3491211,0-0.6616211-0.2451172-0.7338867-0.6005859 c-0.0825195-0.4057617,0.1791992-0.8017578,0.5854492-0.8842773l12.8344727-2.6123047 c0.4052734-0.0800781,0.8007813,0.1791992,0.8847656,0.5854492c0.0820313,0.4057617-0.1796875,0.8017578-0.5859375,0.8842773 l-12.8344727,2.6123047C290.8994141,422.340332,290.8491211,422.3452148,290.7993164,422.3452148z" class="st11"/></g><path d="M272.0696411,446.9225769l-7.8049011-24.1506042 c0.0545044-5.8059692,0.1726379-11.7481995,0.3361816-17.7540283 c5.5061035,0.5360413,14.9192505,3.4708557,17.9085388,16.9181213 C285.4260864,435.0471497,277.5212402,443.0791626,272.0696411,446.9225769z" class="st19"/><g><path d="M270.0161133,410.5336914c-0.1796875,0-0.3598633-0.0639648-0.5029297-0.1938477 c-0.3076172-0.277832-0.3310547-0.7519531-0.0532227-1.0595703l6.4736328-7.1547852 c0.2773438-0.309082,0.7524414-0.3305664,1.059082-0.0532227c0.3076172,0.277832,0.3310547,0.7519531,0.0532227,1.0595703 l-6.4736328,7.1547852C270.4243164,410.4506836,270.2202148,410.5336914,270.0161133,410.5336914z" class="st11"/></g><g><path d="M274.21875,412.2373047c-0.2700195,0-0.5307617-0.1459961-0.6650391-0.4018555 c-0.1918945-0.3671875-0.050293-0.8203125,0.3164063-1.0126953l4.7705078-2.4990234 c0.3676758-0.1928711,0.8198242-0.0507813,1.0126953,0.3164063c0.1918945,0.3671875,0.050293,0.8203125-0.3164063,1.0126953 l-4.7705078,2.4990234C274.4550781,412.2099609,274.3359375,412.2373047,274.21875,412.2373047z" class="st11"/></g><g><path d="M282.2817383,444.3789063c-0.1533203,0-0.3081055-0.046875-0.4414063-0.144043l-6.7006836-4.8837891 c-0.3344727-0.2436523-0.4082031-0.7128906-0.1640625-1.0478516 c0.2426758-0.3349609,0.7124023-0.4077148,1.0478516-0.1640625l6.7006836,4.8837891 c0.3344727,0.2436523,0.4082031,0.7128906,0.1640625,1.0478516 C282.7416992,444.2719727,282.5131836,444.3789063,282.2817383,444.3789063z" class="st11"/></g></g><g><g><polygon points="335.544 497.35 327.194 499.549 287.625 509.952 279.784 486.329 285.635 484.675 331.347 471.791" class="st19"/><path d="M327.194397,499.5486755l-39.569519,10.4034729l-7.841217-23.6235962l5.8513794-1.653656 c12.0480347-2.0352478,33.2184143-5.7241821,33.2184143-5.7241821L327.194397,499.5486755z" class="st17"/></g><g><path d="M309.9941406,501.734375c-0.3144531,0-0.6074219-0.1987305-0.7119141-0.5136719 c-0.0380859-0.1142578-0.2197266-0.7094727-0.4980469-1.625 c-3.3017578-10.8364258-5.1933594-16.6708984-5.6220703-17.3408203 c-0.2929688-0.2929688-0.2646484-0.7353516,0.0283203-1.027832c0.2919922-0.2939453,0.7958984-0.2607422,1.0878906,0.0327148 c0.3691406,0.3691406,1.1015625,2.0161133,5.9404297,17.8989258 c0.2724609,0.8950195,0.4501953,1.4770508,0.4873047,1.5893555c0.1308594,0.3930664-0.0820313,0.8173828-0.4755859,0.9482422 C310.1523438,501.722168,310.0722656,501.734375,309.9941406,501.734375z" class="st11"/></g><g><path d="M312.6054688,499.4628906c-0.3369141,0-0.6435547-0.2290039-0.7275391-0.5712891l-4.2021484-17.1499023 c-0.0986328-0.4023438,0.1474609-0.8085938,0.5498047-0.9072266 c0.4023438-0.0981445,0.8085938,0.1469727,0.9072266,0.5498047l4.2021484,17.1499023 c0.0986328,0.4023438-0.1474609,0.8085938-0.5498047,0.9072266 C312.7246094,499.4560547,312.6650391,499.4628906,312.6054688,499.4628906z" class="st11"/></g></g></g><g><g><path d="M258.6235352,319.8158264c-3.5856018,15.481781-4.9602966,31.6280212-6.0894928,47.4479675 c-0.5773773,8.0889587-1.0648804,16.1851196-1.5101776,24.2823792 c-0.3907471,7.1055908-1.9512634,16.1982117,0.6842346,22.9699402 c0.324707,0.8343201,1.4404907,0.6859436,1.5345917-0.2076721c0.3906403-3.7095337-0.2485046-7.5823975-0.2025452-11.3328857 c0.0467377-3.8137817,0.3058014-7.6225586,0.5195923-11.4293823 c0.4546814-8.0957947,0.8880615-16.1924133,1.4401855-24.2823792 c1.0809174-15.8377991,2.8372345-31.5533447,4.4292755-47.3389282 C259.475708,319.4634705,258.7268066,319.3699341,258.6235352,319.8158264L258.6235352,319.8158264z" class="st7"/></g><g><path d="M252.266449,422.4091492c0.0438232,1.9179077,0.1996002,3.8239746,0.5112305,5.7183838 c0.2779846,1.6899719,0.3237457,3.6487427,1.62323,4.8719788c0.5600281,0.5271606,1.3865509,0.2640686,1.6322021-0.4309082 c0.5571289-1.5761108-0.191925-3.2113342-0.5434418-4.7875977c-0.4199829-1.8831787-0.8809662-3.7556763-1.3625336-5.6236877 C253.8623199,421.1300964,252.2418365,421.3326111,252.266449,422.4091492L252.266449,422.4091492z" class="st7"/></g><g><path d="M322.0415039,417.5948792c2.011322,6.9345093,3.8287659,13.9921265,5.4191284,21.035675 c1.5826111,7.0091858,2.175415,14.4143372,4.2279053,21.2808228c0.4199524,1.4048767,2.4787292,1.1150818,2.5321045-0.3426819 c0.2640076-7.2137146-1.7944336-14.8843994-3.5749817-21.8162231 c-1.8406677-7.1659851-4.2996216-13.9549255-7.2476196-20.7294922 C323.0592346,416.2444153,321.8114319,416.8016663,322.0415039,417.5948792L322.0415039,417.5948792z" class="st7"/></g><g><path d="M330.8782959,355.085907c-0.6227417,6.3772583-1.2420349,12.7842102-2.3203125,19.1031799 c-0.893219,5.2342834-2.7259827,10.4558411-3.1777039,15.7272949 c-0.0785522,0.9168396,1.3473206,1.2917786,1.7470093,0.473175 c2.4475708-5.0129089,3.1261292-11.1652527,3.8791199-16.6450806 c0.8556519-6.2270508,1.1572266-12.3881836,0.7312622-18.6585693 C331.6997986,354.5283203,330.9317627,354.5385132,330.8782959,355.085907L330.8782959,355.085907z" class="st7"/></g><g><path d="M322.6904602,400.0740356c0.0718384,0.9260864,0.0282288,1.8242493-0.2044983,2.7266235 c-0.2136841,0.8285828-0.7759399,1.6480713-0.6803284,2.5089417c0.0821228,0.7398071,0.838623,1.3638611,1.5722961,0.9022827 c1.8379517-1.1563721,1.5961304-4.5560913,1.2115784-6.3948669 C324.3690186,398.7626648,322.6056824,398.9812317,322.6904602,400.0740356L322.6904602,400.0740356z" class="st7"/></g></g></g></g><g id="LEFT_LEG"><g><polygon points="407.567 474.711 426.877 504.051 447.077 493.918 429.873 458.001" class="st9"/><g><path d="M472.0706787,529.8595581l-18.3719177,6.1603394l-4.4703064-6.769104l-1.1720581,8.6680298 l-9.8764648,3.3164063l-43.4129639,14.5648804c0,0,20.9796143-30.6470947,26.7492065-55.579071l10.6851501-4.7882996 l14.9373779-6.6873169C447.1387024,488.7454224,464.9563293,507.9259949,472.0706787,529.8595581z" class="st2"/><path d="M472.0706787,529.8595581l-18.3719177,6.1603394l-4.4703064-6.769104l-1.1720581,8.6680298 l-9.8764648,3.3164063c1.4173889-17.3997192-2.3623962-34.2905273-5.9786072-45.8024902l14.9373779-6.6873169 C447.1387024,488.7454224,464.9563293,507.9259949,472.0706787,529.8595581z" class="st16"/><g><path d="M425.5009766,525.8686523c-0.0517578,0-0.1035156-0.0048828-0.1552734-0.0161133l-14.0488281-2.953125 c-0.4052734-0.0849609-0.6650391-0.4829102-0.5800781-0.8881836c0.0849609-0.4067383,0.4882813-0.6679688,0.8886719-0.5795898 l14.0488281,2.953125c0.4052734,0.0849609,0.6650391,0.4829102,0.5800781,0.8881836 C426.1601563,525.6264648,425.8476563,525.8686523,425.5009766,525.8686523z" class="st11"/></g><g><path d="M428.3867188,518.9746094c-0.0517578,0-0.1035156-0.0048828-0.1552734-0.0161133l-14.0488281-2.953125 c-0.4052734-0.0849609-0.6650391-0.4829102-0.5800781-0.8881836c0.0849609-0.4067383,0.4892578-0.6679688,0.8886719-0.5795898 l14.0488281,2.953125c0.4052734,0.0849609,0.6650391,0.4829102,0.5800781,0.8881836 C429.0458984,518.7324219,428.7333984,518.9746094,428.3867188,518.9746094z" class="st11"/></g><g><path d="M431.2714844,512.0800781c-0.0517578,0-0.1035156-0.0048828-0.1552734-0.0161133l-14.0488281-2.9526367 c-0.4052734-0.0849609-0.6650391-0.4829102-0.5800781-0.8881836c0.0849609-0.4067383,0.4912109-0.6674805,0.8886719-0.5795898 l14.0488281,2.9526367c0.4052734,0.0849609,0.6650391,0.4829102,0.5800781,0.8881836 C431.9306641,511.8378906,431.6181641,512.0800781,431.2714844,512.0800781z" class="st11"/></g><g><path d="M452.8212891,528.9204102c-0.3134766,0-0.6054688-0.1977539-0.7109375-0.5112305 c-0.1318359-0.3930664,0.0800781-0.8178711,0.4726563-0.949707l13.9970703-4.6972656 c0.3935547-0.1328125,0.8173828,0.0795898,0.9492188,0.472168c0.1318359,0.3930664-0.0800781,0.8178711-0.4726563,0.949707 l-13.9970703,4.6972656C452.9804688,528.9082031,452.9003906,528.9204102,452.8212891,528.9204102z" class="st11"/></g><g><path d="M405.8740234,544.6738281c-0.3134766,0-0.6054688-0.1977539-0.7109375-0.5112305 c-0.1318359-0.3930664,0.0800781-0.8178711,0.4726563-0.949707l39.0332031-13.0976563 c0.3935547-0.1337891,0.8173828,0.0795898,0.9492188,0.472168c0.1318359,0.3930664-0.0800781,0.8178711-0.4726563,0.949707 l-39.0332031,13.0976563C406.0332031,544.6616211,405.953125,544.6738281,405.8740234,544.6738281z" class="st11"/></g></g><g><g><path d="M433.4369812,451.847168l-33.9089355,25.1137085l-27.6487122-37.4434204l-15.0827332-20.4161987 c-1.789978-5.5243225-3.5708008-11.1939697-5.3243713-16.9363403 c-16.7637024-54.7431335-31.2377014-115.8374023-31.2377014-115.8374023s-1.2992859-25.9950562,17.2088928-38.6700287 c18.5081787-12.6840668,37.6342163-1.371994,44.7394714,30.5107574 c1.9625549,8.7861938,4.3794556,21.5520325,6.8508301,35.4353943 c6.5055847,36.4530945,13.4018555,80.6019287,13.4018555,80.6019287l29.4204712,54.6977539L433.4369812,451.847168z" class="st19"/><g><path d="M337.2037659,381.6528015c2.7147217,11.2854614,5.6455078,22.3765259,9.2695618,33.4161377 c2.349762,7.1578369,4.5225525,18.307373,11.5315857,22.5156555c1.1836853,0.7106934,2.756134-0.7423401,1.9507446-1.9507446 c-2.5329895-3.8003845-4.9117737-6.9746704-6.5915222-11.3082581 c-1.7618713-4.5454712-3.2955933-9.1948853-4.8764038-13.8056335 c-3.3406677-9.7437134-6.900177-19.4153748-10.2292786-29.1579285 C338.0322266,380.6999512,337.0377502,380.9625549,337.2037659,381.6528015L337.2037659,381.6528015z" class="st7"/></g><g><path d="M362.0406799,445.8287048c1.1115417,1.8922729,2.2671814,3.7095947,3.5722046,5.4771729 c1.0989075,1.4883728,2.2614136,3.4901733,3.9665833,4.2980652c0.7764893,0.3678894,2.02005-0.2630615,1.6354065-1.2572327 c-0.6999207-1.8092041-2.3859863-3.1130066-3.6735229-4.5288086 c-1.4621582-1.6077576-2.897644-3.2556152-4.2736511-4.9359436 C362.6971741,444.1852722,361.6007996,445.079834,362.0406799,445.8287048L362.0406799,445.8287048z" class="st7"/></g><g><path d="M378.6975708,468.6882935c3.3793945,5.7430115,6.8582764,11.4252014,10.4950562,17.0093689 c3.255188,4.99823,6.1835327,10.9787598,10.4761353,15.1490479c0.7512207,0.7298279,2.3323975,0.0038147,1.8933716-1.1021423 c-2.2096252-5.5666809-6.547699-10.5536804-9.9140015-15.4821777 c-3.7742615-5.5257874-7.7005615-10.9438477-11.7194214-16.2937012 C379.3927612,467.255249,378.2190857,467.8751221,378.6975708,468.6882935L378.6975708,468.6882935z" class="st7"/></g><g><path d="M399.3715515,337.411438c1.8334045,18.8436279,5.0664368,37.7538147,8.5328674,56.3623657 c0.4407654,2.3660889,3.9446411,1.3352051,3.5783997-0.9865112 c-2.9300842-18.574646-5.7953491-37.3415222-10.135498-55.6432495 C401.0912781,336.0643921,399.2600708,336.2658997,399.3715515,337.411438L399.3715515,337.411438z" class="st7"/></g><g><path d="M394.1317444,308.1546631c0.3188782,1.6278381,0.4996033,3.3174744,0.6914063,4.9656677 c0.1523743,1.3092957,0.1233826,2.6500854,0.7252197,3.8378906c0.3682556,0.7268372,1.4929199,0.5168152,1.6956787-0.2216187 c0.7822876-2.8492432-1.082428-6.4006042-2.2198486-8.9581909 C394.7868042,307.2445984,394.032074,307.6457214,394.1317444,308.1546631L394.1317444,308.1546631z" class="st7"/></g><g><path d="M413.346344,406.0170593c1.1271973,2.6653748,2.2453613,5.3310852,3.6644897,7.8585815 c1.2017212,2.1402893,2.3753662,4.6838074,4.4212952,6.0946655c1.2116699,0.8355713,2.6271667-0.5397339,2.3383484-1.7976379 c-0.5415649-2.3586731-2.5349731-4.541687-3.8414612-6.5586243 c-1.4793396-2.2837524-3.0184631-4.5283813-4.4240112-6.8587646 C414.6487427,403.3355408,412.7375488,404.5775452,413.346344,406.0170593L413.346344,406.0170593z" class="st7"/></g><g><path d="M441.1253357,444.1996155c1.7998352,7.2967529,4.7613525,13.8460999,9.1389771,19.9736023 c2.2089844,3.0919189,4.5514526,6.0456848,6.3462219,9.4104004c1.8405457,3.450531,2.6705627,7.3506165,4.6962585,10.6758728 c0.7855835,1.2896118,2.6334229,0.682373,2.7296753-0.7393188 c0.4341125-6.4120178-4.0933838-13.1569214-7.8171082-18.0089111 c-5.3244324-6.9377441-10.071106-13.5614624-13.0976563-21.8619995 C442.6708679,442.4127808,440.8015442,442.8869019,441.1253357,444.1996155L441.1253357,444.1996155z" class="st7"/></g><path d="M433.4369812,451.847168l-33.9089355,25.1137085l-27.6487122-37.4434204l-15.0827332-20.4161987 c-1.789978-5.5243225-3.5708008-11.1939697-5.3243713-16.9363403 c-16.7637024-54.7431335-31.2377014-115.8374023-31.2377014-115.8374023s-1.2992859-25.9950562,17.2088928-38.6700287 c18.5081787-12.6840668,37.6342163-1.371994,44.7394714,30.5107574 c1.9625549,8.7861938,4.3794556,21.5520325,6.8508301,35.4353943 c-11.3211365,7.8867188-27.1307983,15.309967-33.6091309,21.788269 c-9.9945984,9.9945984,27.7123108,48.6101074,28.166626,52.698822 c0.4542847,4.0886841-16.8091125,6.8144836-16.8091125,6.8144836s38.5700989,36.9890747,65.0739441,53.9981079 L433.4369812,451.847168z" class="st20"/><g><path d="M418.8935547,460.4306641c-0.2509766,0-0.4960938-0.1254883-0.6376953-0.3540039 l-35.8876953-57.6806641c-0.0351563-0.0561523-0.0625-0.1171875-0.0820313-0.1811523 c-7.7265625-25.8510742-25.0302734-97.2475586-25.2041016-97.9658203 c-0.0976563-0.4023438,0.1494141-0.8076172,0.5517578-0.9052734 c0.4023438-0.0966797,0.8076172,0.1489258,0.9052734,0.5527344 c0.1738281,0.7167969,17.4257813,71.9003906,25.1552734,97.7924805l35.8349609,57.5957031 c0.21875,0.3515625,0.1113281,0.8139648-0.2402344,1.0327148 C419.1650391,460.394043,419.0283203,460.4306641,418.8935547,460.4306641z" class="st11"/></g><g><path d="M377.1601563,407.1079102c-0.2490234,0-0.4921875-0.1235352-0.6347656-0.3491211 c-0.2216797-0.3500977-0.1171875-0.8134766,0.2324219-1.034668l19.3701172-12.2504883 c0.3525391-0.222168,0.8144531-0.1162109,1.0351563,0.2329102c0.2216797,0.3500977,0.1171875,0.8134766-0.2324219,1.034668 l-19.3701172,12.2504883C377.4355469,407.0703125,377.296875,407.1079102,377.1601563,407.1079102z" class="st11"/></g><g><path d="M381.5839844,410.2954102c-0.2587891,0-0.5107422-0.1342773-0.6503906-0.3745117 c-0.2070313-0.3583984-0.0849609-0.8173828,0.2734375-1.0244141l11.3359375-6.5595703 c0.3574219-0.2094727,0.8164063-0.0854492,1.0253906,0.2734375c0.2070313,0.3583984,0.0849609,0.8173828-0.2734375,1.0244141 l-11.3359375,6.5595703C381.8408203,410.2631836,381.7109375,410.2954102,381.5839844,410.2954102z" class="st11"/></g><path d="M371.8827209,439.5155334l-15.0824585-20.4129333 c-1.7953491-5.5216675-3.5737915-11.1927795-5.3293762-16.9385986 c5.3905945-1.2434692,15.2483521-1.4557495,22.3602905,10.3419189 C380.767334,424.0079956,375.8283997,434.1374512,371.8827209,439.5155334z" class="st21"/><g><path d="M358.1210938,405.7094727c-0.1005859,0-0.2021484-0.0200195-0.2998047-0.0625 c-0.3798828-0.1660156-0.5537109-0.6079102-0.3876953-0.987793l3.8613281-8.8432617 c0.1660156-0.3789063,0.6103516-0.5517578,0.9873047-0.387207c0.3798828,0.1660156,0.5537109,0.6079102,0.3876953,0.987793 l-3.8613281,8.8432617C358.6855469,405.5415039,358.4101563,405.7094727,358.1210938,405.7094727z" class="st11"/></g><g><path d="M362.6464844,405.9873047c-0.1865234,0-0.3740234-0.0693359-0.5195313-0.2084961 c-0.2988281-0.2871094-0.3085938-0.7617188-0.0214844-1.0605469l3.7275391-3.8862305 c0.2861328-0.2993164,0.7607422-0.3095703,1.0605469-0.0224609c0.2988281,0.2871094,0.3085938,0.7617188,0.0214844,1.0605469 l-3.7275391,3.8862305C363.0400391,405.9101563,362.84375,405.9873047,362.6464844,405.9873047z" class="st11"/></g><g><path d="M380.5166016,433.894043c-0.0742188,0-0.1503906-0.0112305-0.2255859-0.034668l-7.90625-2.4980469 c-0.3955078-0.125-0.6142578-0.5463867-0.4892578-0.9414063c0.1240234-0.394043,0.5429688-0.612793,0.9404297-0.4892578 l7.90625,2.4980469c0.3955078,0.125,0.6142578,0.5463867,0.4892578,0.9414063 C381.1308594,433.6899414,380.8349609,433.894043,380.5166016,433.894043z" class="st11"/></g></g><g><polygon points="448.111 467.13 437.453 474.126 406.679 494.324 391.732 474.426 408.787 462.796 435.99 444.242" class="st21"/><polygon points="437.453 474.126 406.679 494.324 391.732 474.426 408.787 462.796 426.977 455.781" class="st17"/><g><path d="M425.0371094,479.4536133c-0.2275391,0-0.4521484-0.1030273-0.5996094-0.2983398 c-0.0742188-0.0986328-0.4511719-0.6254883-1.0273438-1.4345703 c-6.5566406-9.1918945-10.1943359-14.1040039-10.8105469-14.6000977 c-0.3701172-0.1845703-0.484375-0.612793-0.2998047-0.9833984c0.1845703-0.371582,0.671875-0.4995117,1.0419922-0.3149414 c0.4658203,0.2314453,1.6796875,1.5551758,11.2890625,15.0273438 c0.5644531,0.7905273,0.9316406,1.3061523,1.0039063,1.4023438c0.25,0.3310547,0.1835938,0.8012695-0.1474609,1.050293 C425.3525391,479.4042969,425.1943359,479.4536133,425.0371094,479.4536133z" class="st11"/></g><g><path d="M426.7910156,476.46875c-0.2490234,0-0.4921875-0.1235352-0.6347656-0.3491211l-9.4404297-14.921875 c-0.2216797-0.3500977-0.1171875-0.8129883,0.2324219-1.034668c0.3535156-0.2226563,0.8144531-0.1162109,1.0351563,0.2329102 l9.4404297,14.921875c0.2216797,0.3500977,0.1171875,0.8129883-0.2324219,1.034668 C427.0664063,476.4311523,426.9277344,476.46875,426.7910156,476.46875z" class="st11"/></g></g></g></g></g><g id="BODY"><g><path d="M396.311615,294.959198c-11.5846558,7.0325623-40.8233948,19.7166443-58.1958313,27.0490112 c-8.3046265-14.7102356-20.8523865-39.315094-20.8523865-39.315094 c-4.6429138,13.3564148-9.9945984,31.8554993-12.2388,39.7693787 c-22.6514587-7.9956665-41.3685913-20.6887817-41.3685913-20.6887817 c1.7444763-28.5391541,4.7974243-53.271225,8.150116-73.7056427 c7.0780334-43.331131,15.4734802-67.3545227,15.4734802-67.3545227l2.7257996-24.986496 c11.8117981,4.0886993,25.8951111,14.3104401,25.8951111,14.3104401l25.4407959,0.4542999 c36.1168518-12.9475403,53.4529419-13.9288483,53.4529419-13.9288483 c-1.1902466,9.6221008-4.1977234,25.513504-7.5595398,41.959137c-0.0090942,0.0363922-0.0181885,0.0818024-0.0272827,0.1181335 c-6.069458,29.5658264-13.3109741,60.8943939-13.3109741,60.8943939 C376.0225525,252.2550049,396.311615,294.959198,396.311615,294.959198z" class="st12"/><path d="M373.8964539,239.5346069c0,0,7.2597046-31.4103088,13.3382568-61.0125275 c-14.7011414,23.0966034-51.081543,62.8660431-64.8195496,71.0071259 c-11.5028687,6.8145142-36.4802856-10.4852753-50.6090393-21.4611359 c-3.3526917,20.4344177-6.4056396,45.1664886-8.150116,73.7056427c0,0,18.7171326,12.6931152,41.3685913,20.6887817 c2.2442017-7.9138794,7.5958862-26.4129639,12.2388-39.7693787c0,0,12.54776,24.6048584,20.8523865,39.315094 c17.3724365-7.3323669,46.6111755-20.016449,58.1958313-27.0490112 C396.311615,294.959198,376.0225525,252.2550049,373.8964539,239.5346069z M354.216156,258.1609192 c-3.4889832,3.6343994-23.6235962,20.7432861-36.6528931,21.651886 c-13.0202637,0.9085999-31.1468506-13.0474854-35.1265259-18.6263123 c-3.0346985-4.2340393,21.8063965,8.6317139,33.1639099,7.5777588 C326.9581604,267.7012024,357.696106,254.5265045,354.216156,258.1609192z" class="st13"/><g><path d="M380.3992615,243.130722c2.6700745,10.2937012,5.4527893,22.2381744,11.3310242,31.2582245 c0.8971558,1.3766479,3.2205811,0.5357971,2.7309265-1.1513062c-1.5101624-5.2032166-4.2500305-10.1772156-6.276123-15.2046814 c-2.0544128-5.0977783-4.0967712-10.2329102-5.9213257-15.4162598 C381.8549805,241.455307,380.0829163,241.9112091,380.3992615,243.130722L380.3992615,243.130722z" class="st7"/></g><path d="M387.207428,178.640213c-6.069458,29.5658264-13.3109741,60.8943939-13.3109741,60.8943939 c-5.1517944-12.9475555,8.3409424-79.72966,8.3409424-79.72966S385.4447327,170.3810577,387.207428,178.640213z" class="st22"/><g><path d="M331.0908203,262.7724609c-0.2763672,0-0.5419922-0.152832-0.6728516-0.4174805 c-0.1835938-0.3710938-0.0322266-0.8208008,0.3388672-1.0048828l31.4101563-15.5415039l-36.9414063,11.0268555 c-0.4052734,0.1206055-0.8154297-0.1083984-0.9335938-0.5043945c-0.1181641-0.3969727,0.1074219-0.8144531,0.5039063-0.9331055 l45.40625-13.5532227c0.3720703-0.1098633,0.7705078,0.0810547,0.9130859,0.4443359 c0.1425781,0.3623047-0.0166016,0.7739258-0.3652344,0.9467773l-39.3271484,19.4589844 C331.3154297,262.7475586,331.2021484,262.7724609,331.0908203,262.7724609z" class="st11"/></g><g><path d="M303.4072266,260.4282227c-0.0664063,0-0.1347656-0.0087891-0.2021484-0.027832l-29.706543-8.3237305 c-0.3989258-0.1118164-0.6318359-0.5258789-0.5200195-0.9243164c0.1123047-0.3989258,0.5288086-0.6323242,0.9243164-0.5200195 l29.706543,8.3237305c0.3994141,0.1118164,0.6318359,0.5258789,0.5205078,0.9243164 C304.0361328,260.2119141,303.7353516,260.4282227,303.4072266,260.4282227z" class="st11"/></g><path d="M312.7961121,148.5231628l34.2996521-1.0600281l-31.9524231,86.1655731 c0,0-4.2401428-17.4148407-5.3001709-25.2893677C308.7831421,200.464798,312.7961121,148.5231628,312.7961121,148.5231628z" class="st19"/><g><path d="M316.9619141,211.2094727c-0.03125,0-0.0634766-0.0019531-0.0957031-0.0058594 c-0.4111328-0.0522461-0.7011719-0.4277344-0.6494141-0.8388672 c4.1953125-32.9677734,9.9482422-59.1679688,10.0058594-59.4287109 c0.0888672-0.4047852,0.4892578-0.6582031,0.8945313-0.5708008c0.4042969,0.0893555,0.6591797,0.4897461,0.5703125,0.894043 c-0.0576172,0.2602539-5.796875,26.3984375-9.9824219,59.2949219 C317.6572266,210.9331055,317.3339844,211.2094727,316.9619141,211.2094727z" class="st11"/></g><path d="M341.6820374,150.6462402c0,0-4.3358459,2.5349731-12.6846008,3.2709351 c-0.567688-2.3078156-1.4191895-5.0881348-1.4191895-5.0881348c-0.8123169,1.7717896-1.3995972,3.7434235-1.7421265,5.0791016 c-1.5366516-0.2907562-4.4141846-1.126709-6.9099731-3.4890442l1.8008728-7.9502563 c0,0,7.9866028-1.8990021,19.6532593-0.4542999L341.6820374,150.6462402z" class="st19"/><g><path d="M316.65625,277.3857422c-0.3652344,0-0.6855469-0.2675781-0.7412109-0.6396484 c-2.8535156-19.2304688-2.1337891-38.7124023-2.1259766-38.9067383 c0.0166016-0.4145508,0.4082031-0.7416992,0.7783203-0.7202148c0.4140625,0.0161133,0.7363281,0.3647461,0.7197266,0.7788086 c-0.0068359,0.1933594-0.7207031,19.5405273,2.1123047,38.6274414 c0.0605469,0.4101563-0.2226563,0.7915039-0.6318359,0.8520508 C316.7304688,277.3833008,316.6933594,277.3857422,316.65625,277.3857422z" class="st11"/></g><circle cx="305.584" cy="247.617" r="3.123" class="st11"/><circle cx="305.584" cy="267.531" r="3.123" class="st11"/><path d="M309.7674561,150.1889343c0,0-9.3131409,12.7028351-13.288269,23.6209869l6.0194702,8.0836182 l-9.3131714,10.0909882c0,0,10.4489136,24.413147,21.2006836,43.3099365c0,0,23.0178528-29.5349731,40.584137-43.9525299 l-9.0859985-11.3380737l13.6289978-10.0782776l-4.6944275-18.8967896l-10.4489136,3.7793579 c0,0-22.0335388,39.5432739-29.7566528,75.4471741c0,0-3.8237-45.3226624,0.7193298-78.2870483L309.7674561,150.1889343z" class="st13"/><path d="M309.7674561,143.2229919c0,0-9.3131409,13.7425842-13.288269,25.5543823l6.0194702,8.7452698 l-7.0416565,8.745285c0,0,8.1773987,28.5830383,18.9291687,49.026535c0,0,23.0178528-31.9524231,40.584137-47.5500641 l-9.0859985-12.266098l13.6289978-10.9031982l-4.6944275-20.443512l-10.4489136,4.0886993 c0,0-22.0335388,42.7799225-29.7566528,81.6225739c0,0-2.5743713-49.1401215,1.9686279-84.8026733L309.7674561,143.2229919z" class="st7"/><g><g><path d="M317.2372131,153.3696747c0.1604919,1.2015228,0.4692383,2.1473694,0.88797,2.4533539 c1.4242859,0.9947815,8.4466553-1.5682831,8.4466553-1.5682831s1.335083-2.1675568,0.2524109-4.6950836 c0,0-0.2304993-0.1642609-0.6319885-0.4317932c-1.6467896-1.0795593-6.071991-3.8477631-7.6060486-3.265976 C317.2469482,146.3840027,316.8619385,150.5571899,317.2372131,153.3696747z" class="st12"/><path d="M317.2372131,153.3696747c0.1604919,1.2015228,0.4692383,2.1473694,0.88797,2.4533539 c1.4242859,0.9947815,8.4466553-1.5682831,8.4466553-1.5682831s1.335083-2.1675568,0.2524109-4.6950836 c0,0-0.2304993-0.1642609-0.6319885-0.4317932c-1.6452332,0.9407654-2.1617126,2.3305359-2.6199341,3.6341858 C323.1340027,153.9968262,318.7252197,155.1340942,317.2372131,153.3696747z" class="st13"/></g><g><path d="M325.5463257,153.5010529c0.510376,2.156723,1.9743347,2.8798218,3.9654846,2.8544159 c2.5396423-0.0268555,4.7612-0.6907959,4.915741-4.4929962c0.0871277-2.0693054-0.1885681-3.4868164-0.9544373-4.3200073 c-0.6465759-0.7113495-1.6269836-1.0145721-3.0140076-0.9693756 c-2.6681213,0.0798187-5.0605469,1.0419617-5.1077576,4.8467255 C325.3381958,152.2240143,325.4071655,152.9128418,325.5463257,153.5010529z" class="st12"/><path d="M325.5463257,153.5010529c0.510376,2.156723,1.9743347,2.8798218,3.9654846,2.8544159 c2.5396423-0.0268555,4.7612-0.6907959,4.915741-4.4929962c0.0871277-2.0693054-0.1885681-3.4868164-0.9544373-4.3200073 c0.0678711,2.1474609-0.2508545,6.3140106-3.6780701,6.6972656 C327.5840149,154.4745178,326.2949524,154.028244,325.5463257,153.5010529z" class="st13"/></g><path d="M333.2403564,149.3785706c0,0,6.6296997-3.9554443,8.4811096-3.0881195 s1.2331238,9.0659027-0.263916,9.9590607s-8.3143005-2.1732025-8.3143005-2.1732025 S331.9700928,151.8183594,333.2403564,149.3785706z" class="st12"/></g></g></g><g id="LEFT_ARM"><g><g><path d="M403.1260986,247.621109c-13.4745483-11.1121521-25.1409302-61.6939087-25.1409302-61.6939087 s1.3174744-13.3201141,4.2522278-26.1222534c2.7167053-11.8117981,6.8236084-23.1692963,12.5568542-23.2420044 c7.15979-0.0908356,24.4595032,44.2124481,24.4595032,44.2124481s11.6028442,38.9880676,15.0646057,51.9356232 c0.4634094,1.7353973,0.7814026,2.9983673,0.9085999,3.6434937 C436.2900085,241.8061066,416.6006775,258.7333374,403.1260986,247.621109z" class="st12"/><path d="M403.1260986,247.621109c-13.4745483-11.1121521-25.1409302-61.6939087-25.1409302-61.6939087 s1.3174744-13.3201141,4.2522278-26.1222534c5.4425049,26.7582855,27.6396179,71.4795532,52.0809631,72.9060669 c0.4634094,1.7353973,0.7814026,2.9983673,0.9085999,3.6434937 C436.2900085,241.8061066,416.6006775,258.7333374,403.1260986,247.621109z" class="st13"/></g><g><g><path d="M439.8153992,188.0896759c0,0-1.8626404,41.1504669-2.916626,47.2017212 c-0.2271729,1.3174896-0.6541748,3.016571-1.4083252,4.8156281 c-2.7076111,6.4601288-9.7492676,14.2014313-27.9303589,10.1036224 c-0.0545349-0.0090942-0.0999451-0.0272827-0.1544495-0.036377 c-9.7402344-3.6979523-10.8486938-23.1783295-9.803833-40.3509064 c0.8995056-14.6648102,3.3618164-27.6395874,3.3618164-27.6395874s7.5050659-1.4537964,17.0453491-0.6723633 C424.9052124,182.0656433,432.8554688,183.8010559,439.8153992,188.0896759z" class="st12"/><path d="M439.8153992,188.0896759c0,0-1.8626404,41.1504669-2.916626,47.2017212 c-0.2271729,1.3174896-0.6541748,3.016571-1.4083252,4.8156281 c-2.7076111,6.4601288-9.7492676,14.2014313-27.9303589,10.1036224 c-0.0545349-0.0090942-0.0999451-0.0272827-0.1544495-0.036377 c-9.7402344-3.6979523-10.8486938-23.1783295-9.803833-40.3509064 c2.0625305,10.5579376,7.4596252,20.2526855,18.2446899,20.3980865 c10.2580872,0.1453552,6.3602295-28.1302795,2.1624756-48.7100372 C424.9052124,182.0656433,432.8554688,183.8010559,439.8153992,188.0896759z" class="st13"/><g><path d="M423.8876953,197.5029297c-12.9912109,0-22.6025391-5.4033203-22.7246094-5.4736328 c-0.359375-0.2055664-0.4833984-0.6635742-0.2773438-1.0229492s0.6621094-0.4838867,1.0234375-0.2783203 c0.1513672,0.0869141,15.4052734,8.6411133,33.2763672,3.7885742 c0.4013672-0.1113281,0.8115234,0.1279297,0.9199219,0.5268555c0.1083984,0.3999023-0.1269531,0.8120117-0.5273438,0.9204102 C431.5039063,197.0708008,427.5595703,197.5029297,423.8876953,197.5029297z" class="st11"/></g><path d="M439.8153992,188.0896759c-1.926239,0.6269379-3.8161316,1.0993652-5.6515198,1.4355469 c-9.9128113,1.8353882-18.480896-0.2089691-24.4231262-2.6076813c-5.5152283-2.21698-8.7771301-4.7337646-8.7771301-4.7337646 s3.5253906-0.6905518,8.8225403-0.8631897c6.5328369-0.2271423,15.7641907,0.3270874,24.3777161,3.8978729 C436.0901489,186.0089417,437.9891052,186.9630127,439.8153992,188.0896759z" class="st13"/><path d="M435.490448,240.1070251c-2.7076111,6.4601288-9.7492676,14.2014313-27.9303589,10.1036224 c0.2362366-3.4526672,1.2901917-9.5584869,5.5697021-13.3382416c1.3084106-1.1721191,2.9256897-2.1170502,4.9155273-2.6894684 c0.8631592-0.2634735,1.7899475-0.4452057,2.7984924-0.5542297c4.7974243-0.5088196,8.5135803,0.9631042,11.321167,3.1437225 C433.4552002,237.7719116,434.5546265,238.9257965,435.490448,240.1070251z" class="st14"/><g><path d="M415.3935547,240.3979492c-0.2255859,0-0.4472656-0.1005859-0.5957031-0.2924805 c-1.328125-1.7270508-3.0195313-3.7285156-3.5351563-4.0766602 c-0.3017578-0.0634766-0.5458984-0.3115234-0.5888672-0.6352539 c-0.0546875-0.4106445,0.2333984-0.7880859,0.6445313-0.8427734 c0.4228516-0.0527344,0.9990234-0.1303711,4.6689453,4.6396484c0.2519531,0.3286133,0.1904297,0.7993164-0.1376953,1.0517578 C415.7138672,240.347168,415.5527344,240.3979492,415.3935547,240.3979492z" class="st11"/></g><g><path d="M419.2539063,237.6723633c-0.2880859,0-0.5625-0.1665039-0.6865234-0.4472656l-1.7041016-3.8613281 c-0.1669922-0.3789063,0.0048828-0.8217773,0.3837891-0.9887695c0.3779297-0.1674805,0.8212891,0.003418,0.9892578,0.3833008 l1.7041016,3.8613281c0.1669922,0.3789063-0.0048828,0.8217773-0.3837891,0.9887695 C419.4580078,237.6518555,419.3554688,237.6723633,419.2539063,237.6723633z" class="st11"/></g><g><path d="M430.9511719,239.3759766c-0.140625,0-0.2832031-0.0395508-0.4101563-0.1230469 c-0.3466797-0.2270508-0.4433594-0.6918945-0.2158203-1.0385742l2.3847656-3.6342773 c0.2265625-0.3457031,0.6904297-0.4438477,1.0380859-0.215332c0.3466797,0.2270508,0.4433594,0.6918945,0.2158203,1.0385742 l-2.3847656,3.6342773C431.4355469,239.2568359,431.1953125,239.3759766,430.9511719,239.3759766z" class="st11"/></g></g><g><path d="M457.7511292,175.587326c0,0,9.4880676-7.2642517,10.0559387-9.1382446 c0.5678711-1.8739777-0.1366272-6.7579498-5.0279541-5.6787415 c-4.8913269,1.0791931-11.5539856,7.6095123-11.5539856,7.6095123L457.7511292,175.587326z" class="st10"/><path d="M457.8329468,170.3992004c-0.036377,2.8530121-0.0818176,4.8700867-0.0818176,5.1881256 c0,1.2538757-8.7407227,5.0154877-12.2660828,5.687851c-3.5162964,0.672348-11.321167,0-11.321167,0v8.2500458 c-7.3051453,1.3538513-13.8742981,0.5997009-19.2077637-0.8540955 c-1.9081116-0.5178528-3.6526184-1.1175537-5.2153625-1.7535858c0-1.6354675,0.0181274-3.5707855,0.0454102-5.5969543 c0.1271667-6.887207,0.4634094-14.901062,1.4083252-16.5183411 c1.6990662-2.9529572,11.8117981-0.5724182,11.8117981-0.5724182s-0.3452759-15.8187561,0-16.7636871 c0.3361816-0.9540253,32.019043-2.4259491,33.7272339-1.5173492 C458.0055847,146.630249,457.9510498,162.0673523,457.8329468,170.3992004z" class="st9"/><path d="M457.8329468,170.3992004c-0.036377,2.8530121-0.0818176,4.8700867-0.0818176,5.1881256 c0,1.2538757-8.7407227,5.0154877-12.2660828,5.687851c-3.5162964,0.672348-11.321167,0-11.321167,0v8.2500458 c-7.3051453,1.3538513-13.8742981,0.5997009-19.2077637-0.8540955 c0.817688-19.5076141,2.9801636-16.5909882,9.4130554-15.8096008 C429.6753845,173.515686,449.3738708,175.169342,457.8329468,170.3992004z" class="st10"/><g><path d="M435.1943359,168.1225586c-0.3896484,0-0.71875-0.3017578-0.7470703-0.6962891l-1.5058594-21.0629883 c-0.0292969-0.4135742,0.28125-0.7724609,0.6943359-0.8017578c0.4091797-0.027832,0.7724609,0.28125,0.8017578,0.6943359 l1.5058594,21.0629883c0.0292969,0.4135742-0.28125,0.7724609-0.6943359,0.8017578 C435.2304688,168.1220703,435.2128906,168.1225586,435.1943359,168.1225586z" class="st11"/></g><g><path d="M446.7607422,166.5322266c-0.390625,0-0.7207031-0.3032227-0.7470703-0.6987305l-1.3662109-20.0029297 c-0.0283203-0.4135742,0.2841797-0.7714844,0.6972656-0.7993164 c0.3876953-0.0268555,0.7714844,0.2836914,0.7988281,0.6967773l1.3662109,20.0029297 c0.0283203,0.4135742-0.2832031,0.7714844-0.6972656,0.7993164 C446.7958984,166.5317383,446.7783203,166.5322266,446.7607422,166.5322266z" class="st11"/></g></g></g><g><g><path d="M390.7131958,245.8862305c3.9742126,6.9595642,8.1144409,14.4909668,16.1180115,17.3704834 c7.9027405,2.8432312,16.9484863-0.9916992,23.7706299-5.0363159 c7.2953186-4.3251801,10.5263367-11.0126495,11.8106995-19.202652 c0.7536621-4.8056641,1.1187744-9.6704102,1.4951477-14.5158844 c0.4309692-5.5482788,1.4648132-11.1317596,1.3692932-16.699707c-0.0186768-1.0882416-1.6689453-1.3695526-1.937439-0.262207 c-1.7660217,7.2840118-2.2172852,15.0979156-3.1538391,22.5284882 c-0.9730225,7.7197418-1.1298828,16.5241852-7.1401978,22.2949982 c-5.2686768,5.0587463-15.8864441,9.9449768-23.2514954,8.5328369 c-8.17099-1.5666809-13.7344055-9.1542358-18.0689392-15.6015167 C391.3079224,244.6742859,390.335083,245.2240906,390.7131958,245.8862305L390.7131958,245.8862305z" class="st7"/></g><g><path d="M445.9826965,197.8682251c0.0435791-1.1091461,0.2078857-2.1784515,0.3630066-3.2742462 c0.1394653-0.9853058,0.461731-1.8815155-0.0811462-2.7849426c-0.3424377-0.5698242-1.0431824-0.5944214-1.5184326-0.1956635 c-0.8200684,0.6880493-0.7953796,1.8121185-0.8208008,2.8156738 c-0.0289307,1.1413574,0.1054993,2.3059235,0.2409668,3.4391785 C444.3019104,199.0027466,445.9356079,199.0666351,445.9826965,197.8682251L445.9826965,197.8682251z" class="st7"/></g><g><path d="M449.7276001,184.1342163c5.4457092,0.329071,10.6181641-3.5296936,14.7607422-6.6980743 c3.1960144-2.4444275,7.3523865-6.0185242,7.7673645-10.2605591c0.0719299-0.7353973-0.9452515-1.0691223-1.4170227-0.5869598 c-2.6615295,2.7200012-4.3434143,5.954071-7.4223633,8.4037933 c-3.6387939,2.8951263-8.9822693,7.0379333-13.6887207,7.4425812 C448.6443787,182.5281372,448.6251526,184.0675964,449.7276001,184.1342163L449.7276001,184.1342163z" class="st7"/></g></g></g></g><g id="PRODUCT"><g><g><polygon points="384.585 72.168 389.497 113.895 426.295 133.902 426.295 91.887" class="st2"/><polygon points="468.006 72.168 463.094 113.895 426.295 133.902 426.295 91.887" class="st23"/><polygon points="468.009 72.17 450.873 80.266 441.941 84.491 426.295 91.887 384.582 72.17 401.291 64.266 410.231 60.041 426.295 52.445" class="st24"/><polygon points="410.231 60.041 450.873 80.266 441.941 84.491 401.291 64.266" class="st25"/></g><g><g><path d="M423.5235901,8.0513077c-1.0190735,6.9111071-0.4365845,16.3794594,1.9672241,22.9799137 c0.3267517,0.8972416,1.5197754,0.7090054,1.6184692-0.219038c0.4235229-3.9832306-0.2132568-8.1461067-0.6219482-12.1274223 c-0.3650513-3.5563679-0.5414124-7.1727314-1.4671021-10.6334534 C424.835968,7.3624578,423.639801,7.2630639,423.5235901,8.0513077L423.5235901,8.0513077z" class="st26"/></g><g><path d="M425.2197876,34.9672394c-0.1144714,0.2981377-0.2029419,0.6819267-0.1993713,1.0042686 c0.0042419,0.3812408,0.2440796,0.618618,0.4291992,0.9224854c0.2619019,0.429966,0.8859253,0.429966,1.1478271,0 c0.190033-0.3119316,0.4249268-0.5280304,0.4291992-0.9224854c0.0035706-0.3279152-0.0827332-0.7005081-0.1993408-1.0042686 C426.5249939,34.1798439,425.522583,34.1784821,425.2197876,34.9672394L425.2197876,34.9672394z" class="st26"/></g><g><path d="M481.431366,85.7205505c5.607605,1.6404724,11.9646606,1.3869705,17.7717285,1.4913864 c6.5075073,0.1170044,13.0289612-0.0278931,19.5219421-0.4798508c1.7562256-0.1222458,1.7846069-2.849968,0-2.7592697 c-6.182251,0.314209-12.3536377,0.5367813-18.5453796,0.4782791 c-6.0812073-0.0574646-12.4998169-1.0570374-18.5292358-0.3490143 C480.7733154,84.2050781,480.4772339,85.4414215,481.431366,85.7205505L481.431366,85.7205505z" class="st26"/></g><g><path d="M368.5228882,86.6761093c2.6532898,0.6794739,5.8240356,0.4640732,8.4356079-0.3249664 c1.5162659-0.4581146,0.8504028-2.5237579-0.6367493-2.3096466c-2.593689,0.373436-5.2085266,0.6093826-7.7988586,0.9901505 C367.663147,85.1580276,367.7593994,86.4805908,368.5228882,86.6761093L368.5228882,86.6761093z" class="st26"/></g><g><path d="M343.6329346,88.0153275c5.8829651-0.2413177,11.7564392-0.6166458,17.6249084-1.0966263 c1.7086182-0.1397476,1.7235718-2.8235931,0-2.6826248c-5.8873291,0.4815216-11.7619629,1.0678864-17.6249084,1.7864456 C342.3979797,86.1738739,342.3189697,88.0692291,343.6329346,88.0153275L343.6329346,88.0153275z" class="st26"/></g><g><path d="M353.3043213,43.2810555c3.4755249,1.8256836,7.0932617,3.4180717,10.4327087,5.4927139 c3.3579102,2.0861282,5.6069031,5.2308197,8.7528076,7.3923302c0.7054443,0.4846992,1.6792603-0.3186417,1.4355469-1.103611 c-1.0797729-3.478054-4.9230957-6.0320511-7.8953552-7.8908768 c-3.7515869-2.3462257-7.8927307-4.0432396-12.0907898-5.3965263 C353.0558777,41.4903259,352.4752502,42.8455467,353.3043213,43.2810555L353.3043213,43.2810555z" class="st26"/></g><g><path d="M376.8582153,58.996315c0.8129578,0.2538071,1.5218201,0.7422676,2.0067749,1.448719 c0.3834839,0.5586548,1.1037292,0.7565842,1.6707458,0.3190193c0.5123291-0.3953629,0.6246033-1.2336502,0.1150513-1.6969223 c-1.0115662-0.9197121-2.227478-1.4529037-3.5939026-1.5387268 C376.1898499,57.4739494,376.0789185,58.7530212,376.8582153,58.996315L376.8582153,58.996315z" class="st26"/></g><g><path d="M388.3805542,26.5232353c0.8753052,1.7970581,1.9521484,3.718153,3.6815796,4.8176041 c0.3040161,0.1932621,0.7845459,0.2077179,1.0870056,0c0.1571655-0.1079369,0.3020325-0.2080002,0.386322-0.3863163 c0.2249451-0.4760208,0.1601868-0.9051208-0.168396-1.3049316c-1.1377869-1.3844414-2.6074219-2.4412136-3.6959839-3.8807125 C389.0984497,25.0116119,387.950592,25.6405239,388.3805542,26.5232353L388.3805542,26.5232353z" class="st26"/></g><g><path d="M466.190918,34.5817375c0.7147522-0.7999344,1.5493164-1.5757866,2.1039734-2.4978638 c0.5921631-0.984417-0.7628479-2.007576-1.5752869-1.2154484c-0.7678833,0.7487087-1.3299866,1.7455387-1.9431458,2.6219463 C464.191925,34.3258781,465.5116272,35.3419456,466.190918,34.5817375L466.190918,34.5817375z" class="st26"/></g><g><path d="M472.8523254,28.4831982c3.2747803-2.3908634,6.9687805-5.5567722,8.6599731-9.3415127 c0.4811707-1.0767918-0.884491-2.4587803-1.7906494-1.3816223c-1.3119202,1.5595379-2.3714905,3.3119869-3.7088928,4.8643475 c-1.3367615,1.551651-2.8154907,2.9564247-4.4027405,4.2487164 C470.7167053,27.6004505,471.9104614,29.1708374,472.8523254,28.4831982L472.8523254,28.4831982z" class="st26"/></g><g><path d="M471.8592529,65.143013c6.3015747-3.5880737,14.2542725-4.9511948,20.0069275-9.3897972 c0.9210815-0.7106934,0.4437256-2.6776466-0.8933105-2.1188698 c-6.6685181,2.7869492-14.2278442,5.5659752-20.0710449,9.8706627 C469.940918,64.2128906,470.7723083,65.7619247,471.8592529,65.143013L471.8592529,65.143013z" class="st26"/></g><g><path d="M498.4438782,52.4679222c1.0284119-0.3282166,2.0526733-0.6336784,3.0411987-1.0697021 c1.0263367-0.4527016,0.2957153-2.1329727-0.7606201-1.804142c-1.0249329,0.3190498-1.9972839,0.7843208-2.9819336,1.2102661 C496.7955627,51.2140045,497.4703064,52.7786331,498.4438782,52.4679222L498.4438782,52.4679222z" class="st26"/></g><g><path d="M470.9806213,112.4985046c1.2823792,1.244873,3.0238037,2.0288467,4.426178,3.147377 c1.5375061,1.2263107,3.2471008-0.9485855,1.6602478-2.1517792c-1.5282898-1.1587982-3.4704895-2.4470901-5.4428406-2.5493622 C470.8301086,110.9035568,470.4316406,111.9655838,470.9806213,112.4985046L470.9806213,112.4985046z" class="st26"/></g><g><path d="M481.6125183,120.3104248c6.1638794,5.5991516,12.4200134,11.1002197,18.8220215,16.4266968 c1.3590698,1.1307373,3.3274231-0.7864685,1.9646606-1.9646454 c-6.3148804-5.4594421-12.7786865-10.744873-19.3233643-15.9253769 C482.0581665,118.0415649,480.6047363,119.3949966,481.6125183,120.3104248L481.6125183,120.3104248z" class="st27"/></g><g><path d="M461.0419312,135.2496338c0.5037842,0.8694,1.0834045,1.6884918,1.6649475,2.5069427 c0.502655,0.7073975,0.9936523,1.5902863,1.6837769,2.1312561c0.7574768,0.5937653,1.9716492,0.0747223,1.6974182-0.9880981 c-0.2245483-0.8703918-0.9133301-1.5801544-1.4895935-2.2388611c-0.6702881-0.7662201-1.3538818-1.5240021-1.9516296-2.34935 C461.9592285,133.3621521,460.4292297,134.1922455,461.0419312,135.2496338L461.0419312,135.2496338z" class="st26"/></g><g><path d="M468.2871094,149.0736389c1.717926,2.7397461,3.457428,5.4544678,5.3734741,8.0606995 c1.5544739,2.1144257,3.1217651,4.8095398,5.3045349,6.2900696c0.7008057,0.4753571,1.8375549-0.328064,1.5059204-1.1577148 c-1.0014343-2.5054474-3.1685181-4.5516357-4.8200378-6.6681061c-1.9822693-2.5402985-4.0228882-5.0328979-6.0096436-7.56987 C469.0354004,147.2549286,467.7733765,148.2543488,468.2871094,149.0736389L468.2871094,149.0736389z" class="st26"/></g><g><path d="M431.8467712,156.4141235c0.8289185,6.0026398,1.4755249,11.9895172,1.9169922,18.0328979 c0.109314,1.4963074,2.4847717,2.0607605,2.7999878,0.378952c0.1001282-0.5341949,0.1685486-0.8709869,0.1370239-1.3991241 c-0.0177002-0.2967834-0.2143555-0.6573029-0.5415955-0.7113647c-0.948761-0.1567383-1.3169861-0.0124512-1.9779053,0.723587 c0.8111267,0.3359833,1.6222839,0.6719666,2.4334106,1.0079498 c-0.3873596-6.2495422-1.2853699-12.5024872-2.7354431-18.5932312 C433.556366,154.4975891,431.6671143,155.113327,431.8467712,156.4141235L431.8467712,156.4141235z" class="st26"/></g><g><path d="M409.188385,153.6832428c-0.6279297,1.8793335-1.349762,3.7359467-2.1943359,5.5284271 c-0.696106,1.4773865-1.5906372,2.77005-1.497467,4.4540558c0.035553,0.6429596,0.66745,1.0007477,1.2398071,0.7114563 c1.7213135-0.8700256,2.3312378-2.6793213,2.9733276-4.3978424c0.7348328-1.9668274,1.1494751-3.9577484,1.4170532-6.0337524 C411.2753601,152.7927246,409.521637,152.6858521,409.188385,153.6832428L409.188385,153.6832428z" class="st26"/></g><g><path d="M402.327179,171.7241058c-3.0259399,6.7111053-5.7627869,13.5457306-8.5179138,20.3714447 c0.8405151-0.1098633,1.6810608-0.2197113,2.5216064-0.3295746c-0.1961975-0.3616028-0.392395-0.7231903-0.5885925-1.0847931 c-0.2506104-0.4619141-1.0343323-0.5000458-1.2739868,0c-0.1733398,0.3616028-0.3466492,0.7231903-0.5199585,1.0847931 c-0.8574524,1.7889404,1.7738037,2.9285278,2.521637,1.0630951c2.6957397-6.7245636,5.411438-13.442688,7.835968-20.2707367 C404.7115479,171.4160919,402.8332825,170.6016083,402.327179,171.7241058L402.327179,171.7241058z" class="st26"/></g><g><path d="M396.2385254,131.7585907c-0.3747864,0.5235443-0.7314453,1.034317-1.1855774,1.4959869 c-0.4620972,0.4697266-1.1272278,0.7155609-1.5450439,1.2255554 c-0.4497375,0.5489807-0.2640991,1.2398071,0.3948975,1.4957581c1.0388184,0.4034729,2.2250366-0.3484802,2.937439-1.055603 c0.7828979-0.7770844,1.1576538-1.8761139,0.9743042-2.955719 C397.6776733,131.1585388,396.622467,131.222229,396.2385254,131.7585907L396.2385254,131.7585907z" class="st26"/></g><g><path d="M386.4654846,142.7762299c-6.6308594,3.6622314-12.2478638,8.864975-17.8398132,13.9111176 c-1.316925,1.1883698,0.6573486,3.174469,1.9510803,1.9510956 c5.3610229-5.0694122,10.4496155-10.4461365,16.7687988-14.3565674 C388.2993164,143.6916809,387.4509277,142.2319641,386.4654846,142.7762299L386.4654846,142.7762299z" class="st26"/></g><g><path d="M357.7310791,129.206604c6.7662964-2.5491104,13.427063-5.2938232,20.0140076-8.2759247 c1.6228027-0.7346802,0.2154541-3.1446991-1.4023132-2.3990936 c-6.3504333,2.9268112-12.7723999,5.7102356-19.2637329,8.3099365 C355.640564,127.4176254,356.2395325,129.7685089,357.7310791,129.206604L357.7310791,129.206604z" class="st26"/></g></g></g></g><g id="DOTS"><g><g><path d="M268.3261719,101.890625c-4.0742188,0-7.3891602-3.3149414-7.3891602-7.3896484 s3.3149414-7.3896484,7.3891602-7.3896484c4.074707,0,7.3896484,3.3149414,7.3896484,7.3896484 S272.4008789,101.890625,268.3261719,101.890625z M268.3261719,89.1113281 c-2.9716797,0-5.3891602,2.4179688-5.3891602,5.3896484s2.4174805,5.3896484,5.3891602,5.3896484 s5.3896484-2.4179688,5.3896484-5.3896484S271.2978516,89.1113281,268.3261719,89.1113281z" class="st26"/></g><g><path d="M403.5800781,330.7636719c-1.8798828,0-3.4101563-1.5297852-3.4101563-3.4101563 c0-1.8808594,1.5302734-3.4106445,3.4101563-3.4106445s3.4101563,1.5297852,3.4101563,3.4106445 C406.9902344,329.2338867,405.4599609,330.7636719,403.5800781,330.7636719z M403.5800781,325.9428711 c-0.7773438,0-1.4101563,0.6328125-1.4101563,1.4106445c0,0.7773438,0.6328125,1.4101563,1.4101563,1.4101563 s1.4101563-0.6328125,1.4101563-1.4101563C404.9902344,326.5756836,404.3574219,325.9428711,403.5800781,325.9428711z" class="st7"/></g><g><path d="M438.4101563,431.1137695c-3.265625,0-5.921875-2.6567383-5.921875-5.921875 s2.65625-5.921875,5.921875-5.921875s5.921875,2.6567383,5.921875,5.921875S441.6757813,431.1137695,438.4101563,431.1137695z M438.4101563,421.2700195c-2.1621094,0-3.921875,1.7592773-3.921875,3.921875s1.7597656,3.921875,3.921875,3.921875 s3.921875-1.7592773,3.921875-3.921875S440.5722656,421.2700195,438.4101563,421.2700195z" class="st7"/></g><g><path d="M365.7216797,112.421875c-2.3017578,0-4.1738281-1.8725586-4.1738281-4.1738281 c0-2.3017578,1.8720703-4.1743164,4.1738281-4.1743164s4.1748047,1.8725586,4.1748047,4.1743164 C369.8964844,110.5493164,368.0234375,112.421875,365.7216797,112.421875z M365.7216797,106.0737305 c-1.1982422,0-2.1738281,0.9755859-2.1738281,2.1743164s0.9755859,2.1738281,2.1738281,2.1738281 c1.1992188,0,2.1748047-0.9750977,2.1748047-2.1738281S366.9208984,106.0737305,365.7216797,106.0737305z" class="st7"/></g><g><path d="M188.6557617,122.855957c-3.4282227,0-6.2172852-2.7890625-6.2172852-6.2172852 c0-3.4277344,2.7890625-6.2167969,6.2172852-6.2167969c3.4277344,0,6.2167969,2.7890625,6.2167969,6.2167969 C194.8725586,120.0668945,192.0834961,122.855957,188.6557617,122.855957z M188.6557617,112.421875 c-2.3251953,0-4.2172852,1.8916016-4.2172852,4.2167969s1.8920898,4.2172852,4.2172852,4.2172852 s4.2167969-1.8920898,4.2167969-4.2172852S190.980957,112.421875,188.6557617,112.421875z" class="st26"/></g><g><path d="M177.7080078,172.9941406c-1.4951172,0-2.7119141-1.2167969-2.7119141-2.7119141 s1.2167969-2.7119141,2.7119141-2.7119141c1.4956055,0,2.7124023,1.2167969,2.7124023,2.7119141 S179.2036133,172.9941406,177.7080078,172.9941406z M177.7080078,169.5703125 c-0.3925781,0-0.7119141,0.3193359-0.7119141,0.7119141s0.3193359,0.7119141,0.7119141,0.7119141 s0.7124023-0.3193359,0.7124023-0.7119141S178.1005859,169.5703125,177.7080078,169.5703125z" class="st7"/></g><g><path d="M112.3173828,434.1230469c-1.8349609,0-3.3276367-1.4931641-3.3276367-3.328125 s1.4926758-3.328125,3.3276367-3.328125s3.328125,1.4931641,3.328125,3.328125 S114.1523438,434.1230469,112.3173828,434.1230469z M112.3173828,429.4667969 c-0.7319336,0-1.3276367,0.5957031-1.3276367,1.328125s0.5957031,1.328125,1.3276367,1.328125 c0.7324219,0,1.328125-0.5957031,1.328125-1.328125S113.0498047,429.4667969,112.3173828,429.4667969z" class="st7"/></g><g><path d="M230.7319336,408.980957c-3.324707,0-6.0292969-2.7045898-6.0292969-6.0288086 c0-3.324707,2.7045898-6.0292969,6.0292969-6.0292969c3.3242188,0,6.0288086,2.7045898,6.0288086,6.0292969 C236.7607422,406.2763672,234.0561523,408.980957,230.7319336,408.980957z M230.7319336,398.9228516 c-2.2216797,0-4.0292969,1.8076172-4.0292969,4.0292969s1.8076172,4.0288086,4.0292969,4.0288086 s4.0288086-1.8071289,4.0288086-4.0288086S232.9536133,398.9228516,230.7319336,398.9228516z" class="st7"/></g><g><path d="M236.8222656,327.4414063c-2.2597656,0-4.0981445-1.8383789-4.0981445-4.0981445 s1.8383789-4.0981445,4.0981445-4.0981445s4.0981445,1.8383789,4.0981445,4.0981445 S239.0820313,327.4414063,236.8222656,327.4414063z M236.8222656,321.2451172 c-1.1567383,0-2.0981445,0.9414063-2.0981445,2.0981445s0.9414063,2.0981445,2.0981445,2.0981445 s2.0981445-0.9414063,2.0981445-2.0981445S237.9790039,321.2451172,236.8222656,321.2451172z" class="st7"/></g><g><path d="M415.53125,288.2714844c-2.2294922,0-4.0429688-1.8134766-4.0429688-4.0424805 s1.8134766-4.0424805,4.0429688-4.0424805c2.2285156,0,4.0419922,1.8134766,4.0419922,4.0424805 S417.7597656,288.2714844,415.53125,288.2714844z M415.53125,282.1865234 c-1.1269531,0-2.0429688,0.9160156-2.0429688,2.0424805s0.9160156,2.0424805,2.0429688,2.0424805 c1.1259766,0,2.0419922-0.9160156,2.0419922-2.0424805S416.6572266,282.1865234,415.53125,282.1865234z" class="st7"/></g></g><g><path d="M461.5021057,180.5879822c0.1005249,0,0.100708-0.15625,0-0.15625 C461.4015503,180.4317322,461.4013977,180.5879822,461.5021057,180.5879822L461.5021057,180.5879822z" class="st7"/></g></g></g></switch></svg>