<svg xmlns="http://www.w3.org/2000/svg" enable-background="new 0 0 24 24" viewBox="0 0 24 24"><path fill="#FA5E5C" d="M23.881,9.005C23.108,4.998,19.022,4.5,19.022,4.5H0.723c-0.604,0-0.679,0.783-0.679,0.783s-0.082,7.184-0.022,11.596C0.186,19.257,2.608,19.5,2.608,19.5s8.267-0.022,11.966-0.048c2.438-0.418,2.683-2.517,2.658-3.663C21.584,16.025,24.654,13.012,23.881,9.005z M12.819,12.449c-1.246,1.425-4.011,3.9-4.011,3.9s-0.121,0.117-0.31,0.022c-0.076-0.056-0.108-0.088-0.108-0.088c-0.443-0.432-3.368-2.991-4.034-3.879c-0.709-0.947-1.041-2.648-0.091-3.639C5.216,7.775,7.27,7.701,8.628,9.165c0,0,1.565-1.748,3.468-0.945C14,9.025,13.928,11.174,12.819,12.449z M18.992,12.918c-0.928,0.114-1.682,0.027-1.682,0.027V7.373h1.77c0,0,1.971,0.541,1.971,2.588C21.051,11.837,20.066,12.577,18.992,12.918z"/></svg>