<?xml version="1.0" encoding="iso-8859-1"?>
<!-- Generator: Adobe Illustrator 19.2.0, SVG Export Plug-In . SVG Version: 6.00 Build 0)  -->
<svg version="1.1" id="Layer_1" xmlns="http://www.w3.org/2000/svg" xmlns:xlink="http://www.w3.org/1999/xlink" x="0px" y="0px"
	 viewBox="0 0 600 600" enable-background="new 0 0 600 600" xml:space="preserve">
<g>
	<g>
		
			<linearGradient id="SVGID_1_" gradientUnits="userSpaceOnUse" x1="235.9997253" y1="370.9049072" x2="377.8814087" y2="370.9049072">
			<stop  offset="0" style="stop-color:#7E947D"/>
			<stop  offset="1" style="stop-color:#576958"/>
		</linearGradient>
		<path fill="url(#SVGID_1_)" d="M372.3868103,347.0514221l-136.387085,49.988739
			c1.847702-0.6772461,3.6803894-1.4372864,5.4945984-2.2817688l136.387085-49.9887085
			C376.0671997,345.6141663,374.2344971,346.3742065,372.3868103,347.0514221z"/>
	</g>
</g>
<g>
	<g>
		<g>
			<g>
				
					<linearGradient id="SVGID_2_" gradientUnits="userSpaceOnUse" x1="386.2996826" y1="430.0647583" x2="577.3920288" y2="430.0647583">
					<stop  offset="0" style="stop-color:#607160"/>
					<stop  offset="1" style="stop-color:#3A463B"/>
				</linearGradient>
				<polygon fill="url(#SVGID_2_)" points="577.3920288,414.0548706 441.0049744,464.0435486 386.2996826,446.074646 
					522.6867676,396.0859375 				"/>
			</g>
		</g>
		<g>
			
				<linearGradient id="SVGID_3_" gradientUnits="userSpaceOnUse" x1="329.0220642" y1="32.9225006" x2="316.334259" y2="157.2631378">
				<stop  offset="0" style="stop-color:#AEC1AD"/>
				<stop  offset="1" style="stop-color:#849585"/>
			</linearGradient>
			<polygon fill="url(#SVGID_3_)" points="381.5854797,75.7815628 245.1984253,125.7702713 268.1336365,71.648735 
				404.5206909,21.6600266 			"/>
		</g>
		<g>
			<g>
				<g>
					
						<linearGradient id="SVGID_4_" gradientUnits="userSpaceOnUse" x1="315.2264099" y1="362.7322083" x2="329.5578918" y2="216.4003601">
						<stop  offset="0" style="stop-color:#7E947D"/>
						<stop  offset="1" style="stop-color:#576958"/>
					</linearGradient>
					<path fill="url(#SVGID_4_)" d="M449.651001,287.9627991c-1.486908,30.9982605-17.4684753,58.8297119-44.3238525,71.3266296
						l-136.3878479,49.9877625c26.9688721-12.5536804,42.9957886-40.578125,44.3578796-71.7466736
						c0.6582642-15.1756592-2.1566467-31.1004639-8.8761292-46.3442078
						c-0.3178406-0.7037354-0.6356201-1.4074707-0.9648438-2.1111755
						c-20.0563354-43.0411835-64.9136353-64.7207184-103.2783966-50.6574097l136.3765717-49.9876709
						c39.0003662-14.2903442,84.6862488,8.3312378,104.2545166,52.7685699
						c5.6752625,12.87146,8.5583496,26.2196808,8.9215088,39.2046661
						C449.7984924,282.9458008,449.7758484,285.4656677,449.651001,287.9627991z"/>
				</g>
			</g>
			
				<linearGradient id="SVGID_5_" gradientUnits="userSpaceOnUse" x1="346.0717163" y1="275.4502563" x2="358.892334" y2="346.3910217">
				<stop  offset="0" style="stop-color:#849585;stop-opacity:0"/>
				<stop  offset="1" style="stop-color:#849585"/>
			</linearGradient>
			<path fill="url(#SVGID_5_)" d="M449.651001,287.9627991c-1.486908,30.9982605-17.4684753,58.8297119-44.3238525,71.3266296
				l-136.3878479,49.9877625c26.9688721-12.5536804,42.9957886-40.578125,44.3578796-71.7466736
				c39.9651489-10.2495728,92.0754395-26.3786011,134.923645-48.8640137
				C448.7088928,288.4053955,449.1856079,288.1784668,449.651001,287.9627991z"/>
			
				<linearGradient id="SVGID_6_" gradientUnits="userSpaceOnUse" x1="354.5366211" y1="335.0646362" x2="316.2706299" y2="227.5061493">
				<stop  offset="0" style="stop-color:#7E947D;stop-opacity:0"/>
				<stop  offset="1" style="stop-color:#455447"/>
			</linearGradient>
			<path fill="url(#SVGID_6_)" d="M449.7304077,280.4032898c-8.7966614-39.3408661-55.2883606-56.2304535-93.2105103-40.9639893
				c-30.8733521,12.428772-47.8197327,32.5305786-53.0636902,49.6358337
				c-3.2915955-7.0599976-7.2529297-13.5525513-11.7363892-19.3981018
				c-6.0157776-7.8431702-12.9850159-14.5400085-20.5785217-19.9315033
				c-21.2481995-15.0961761-47.3316803-19.9882507-70.9634857-11.3278046l136.3765717-49.9876709
				c18.9099426-6.9238586,39.386322-5.1758423,57.7060242,3.5299988c9.579834,4.5402069,18.569519,10.9986572,26.4240417,19.1143036
				c8.1043091,8.3653259,15.0053711,18.5013428,20.1244507,30.1242676
				C446.4841614,254.0700836,449.3672485,267.4183044,449.7304077,280.4032898z"/>
			
				<linearGradient id="SVGID_7_" gradientUnits="userSpaceOnUse" x1="370.8017883" y1="298.6239624" x2="345.4668274" y2="229.1874542">
				<stop  offset="0" style="stop-color:#7E947D;stop-opacity:0"/>
				<stop  offset="1" style="stop-color:#3A4A41"/>
			</linearGradient>
			<path fill="url(#SVGID_7_)" d="M420.6844482,211.0743561c-29.7383728,6.2200623-79.2266235,18.660202-128.9646301,58.6026764
				c-6.0157776-7.8431702-12.9850159-14.5400085-20.5785217-19.9315033
				c19.5343018-24.2447052,70.2370605-59.2723999,119.5777588-57.8763123c1.2145081,0.0340881,2.394989,0.0681,3.5413513,0.0908356
				C403.8402405,196.5002594,412.8299255,202.9587097,420.6844482,211.0743561z"/>
		</g>
		<g>
			<g>
				<g>
					
						<linearGradient id="SVGID_8_" gradientUnits="userSpaceOnUse" x1="273.8427429" y1="527.3396606" x2="441.0018616" y2="527.3396606">
						<stop  offset="0" style="stop-color:#7E947D"/>
						<stop  offset="1" style="stop-color:#576958"/>
					</linearGradient>
					<path fill="url(#SVGID_8_)" d="M441.0018616,529.7515869c0,0,0,0-0.0112915,0.0113525l-136.3765869,49.9763794
						l-30.7712402-54.8117065l136.3424683-49.9649353l0.0453796-0.0227356l0.0113525,0.0113525L441.0018616,529.7515869z"/>
				</g>
			</g>
			
				<linearGradient id="SVGID_9_" gradientUnits="userSpaceOnUse" x1="385.5810547" y1="574.168335" x2="337.4705811" y2="494.1530457">
				<stop  offset="0" style="stop-color:#607160"/>
				<stop  offset="1" style="stop-color:#3A463B"/>
			</linearGradient>
			<path fill="url(#SVGID_9_)" d="M441.0018616,529.7515869c0,0,0,0-0.0112915,0.0113525l-136.3765869,49.9763794
				l-30.7712402-54.8117065l136.3424683-49.9649353l0.0567322-0.0113831c0,0-40.6689148,49.6925659-40.6689148,52.5982666
				C369.5730286,530.4553223,441.0018616,529.7515869,441.0018616,529.7515869z"/>
		</g>
		<g>
			<g>
				
					<linearGradient id="SVGID_10_" gradientUnits="userSpaceOnUse" x1="93.5774612" y1="63.3523941" x2="277.0848389" y2="63.3523941">
					<stop  offset="0" style="stop-color:#E4EFE0"/>
					<stop  offset="1" style="stop-color:#BBD1BC"/>
				</linearGradient>
				<path fill="url(#SVGID_10_)" d="M140.6977997,75.9843216l136.3870392-49.9886932
					c-5.2835083,1.9365177-10.5235901,4.1091614-15.7112732,6.523962
					c-11.1316986,5.1816635-21.6134949,11.2878227-31.4090271,18.2008591l-136.387085,49.9887123
					c9.7955399-6.9130402,20.2773438-13.0192032,31.4090271-18.2008667
					C130.1741791,80.0934906,135.4142456,77.9208527,140.6977997,75.9843216z"/>
			</g>
		</g>
		<g>
			<g>
				<g>
					
						<linearGradient id="SVGID_11_" gradientUnits="userSpaceOnUse" x1="170.511261" y1="59.3620071" x2="172.9624329" y2="158.2256165">
						<stop  offset="0" style="stop-color:#7E947D"/>
						<stop  offset="1" style="stop-color:#576958"/>
					</linearGradient>
					<path fill="url(#SVGID_11_)" d="M249.7455292,110.6448822c0,0-0.0112915,0-0.0226593,0.0113602l-136.3538361,49.976387
						l-19.7953186-59.9194565l136.3878632-49.9876823L249.7455292,110.6448822z"/>
				</g>
			</g>
			
				<linearGradient id="SVGID_12_" gradientUnits="userSpaceOnUse" x1="167.5288696" y1="32.9777412" x2="172.109024" y2="113.5883484">
				<stop  offset="0" style="stop-color:#7E947D"/>
				<stop  offset="1" style="stop-color:#576958"/>
			</linearGradient>
			<path fill="url(#SVGID_12_)" d="M249.7455292,110.6448822c0,0-0.0112915,0-0.0226593,0.0113602l-136.3538361,49.976387
				l-19.7953186-59.9194565C148.9528961,107.7845917,249.7455292,110.6448822,249.7455292,110.6448822z"/>
		</g>
		<g>
			<g>
				
					<linearGradient id="SVGID_13_" gradientUnits="userSpaceOnUse" x1="334.1333618" y1="554.4163818" x2="328.1794128" y2="537.9285278">
					<stop  offset="0" style="stop-color:#607160"/>
					<stop  offset="1" style="stop-color:#3A463B"/>
				</linearGradient>
				<path fill="url(#SVGID_13_)" d="M410.229126,474.9346619l-136.387085,49.988678
					c-18.3835602,3.0076294-37.0729828,2.6779175-55.4119568-0.7075195l136.3870544-49.988678
					C373.1561279,477.6125793,391.8455505,477.9422607,410.229126,474.9346619z"/>
			</g>
		</g>
		<g>
			<g>
				
					<linearGradient id="SVGID_14_" gradientUnits="userSpaceOnUse" x1="77.3275909" y1="157.2791595" x2="249.7505188" y2="157.2791595">
					<stop  offset="0" style="stop-color:#E4EFE0"/>
					<stop  offset="1" style="stop-color:#BBD1BC"/>
				</linearGradient>
				<path fill="url(#SVGID_14_)" d="M213.7146759,153.9233246l-136.387085,49.9887085
					c9.6213989-16.4023438,21.7106705-31.0574188,36.0358582-43.2770386l136.3870697-49.9887009
					C235.4253235,122.8659058,223.3360596,137.5209808,213.7146759,153.9233246z"/>
			</g>
		</g>
		<g>
			<g>
				
					<linearGradient id="SVGID_15_" gradientUnits="userSpaceOnUse" x1="221.0838318" y1="512.5205688" x2="192.681839" y2="456.9252014">
					<stop  offset="0" style="stop-color:#607160"/>
					<stop  offset="1" style="stop-color:#3A463B"/>
				</linearGradient>
				<path fill="url(#SVGID_15_)" d="M273.1438293,436.6565857l-136.3870697,49.9887085
					c-15.6761017-12.2686157-29.9925461-27.1309814-42.3233566-44.2675171l136.3870544-49.9887085
					C243.1512756,409.5256042,257.4677124,424.38797,273.1438293,436.6565857z"/>
			</g>
		</g>
		<g>
			<g>
				
					<linearGradient id="SVGID_16_" gradientUnits="userSpaceOnUse" x1="50.415432" y1="297.7412109" x2="191.7443848" y2="297.7412109">
					<stop  offset="0" style="stop-color:#7E947D"/>
					<stop  offset="1" style="stop-color:#576958"/>
				</linearGradient>
				<path fill="url(#SVGID_16_)" d="M191.7443848,303.6946106L55.3565254,353.6822815
					c-1.3734398-6.5265503-2.4631157-13.0531006-3.2575951-19.5682983c-1.748024-14.2676086-2.122612-28.4557495-1.1805-42.3260803
					l136.3879395-49.9877319C185.9329224,261.9927979,187.3517303,282.8664246,191.7443848,303.6946106z"/>
			</g>
		</g>
		
			<linearGradient id="SVGID_17_" gradientUnits="userSpaceOnUse" x1="159.0918884" y1="366.7355652" x2="122.9565125" y2="294.4648132">
			<stop  offset="0" style="stop-color:#7E947D"/>
			<stop  offset="1" style="stop-color:#576958"/>
		</linearGradient>
		<path fill="url(#SVGID_17_)" d="M187.306366,241.8001709c0,0-36.6054382,31.9063721-53.313446,60.9977722
			c0,0-47.8878632,18.0245667-81.8939896,31.31604c-1.748024-14.2676086-2.122612-28.4557495-1.1805-42.3260803
			L187.306366,241.8001709z"/>
		<g>
			<g>
				
					<linearGradient id="SVGID_18_" gradientUnits="userSpaceOnUse" x1="231.4013824" y1="424.5728149" x2="229.2605896" y2="514.4864502">
					<stop  offset="0" style="stop-color:#607160"/>
					<stop  offset="1" style="stop-color:#3A463B"/>
				</linearGradient>
				<path fill="url(#SVGID_18_)" d="M331.8807373,528.3492432l-136.3871002,49.9887085
					c-24.3401947-6.7286987-47.964035-17.5947876-69.9373474-32.1798096l136.3870392-49.988678
					C283.9166565,510.7544556,307.5404968,521.6205444,331.8807373,528.3492432z"/>
			</g>
		</g>
		<g>
			<g>
				<g>
					
						<linearGradient id="SVGID_19_" gradientUnits="userSpaceOnUse" x1="202.4580688" y1="539.5905151" x2="193.7459564" y2="404.5529785">
						<stop  offset="0" style="stop-color:#7E947D"/>
						<stop  offset="1" style="stop-color:#576958"/>
					</linearGradient>
					<polygon fill="url(#SVGID_19_)" points="273.1390076,436.6546631 261.9473572,496.1654358 206.5454407,516.4715576 
						125.5594864,546.1531372 136.7510834,486.642334 					"/>
				</g>
			</g>
			
				<linearGradient id="SVGID_20_" gradientUnits="userSpaceOnUse" x1="230.2897797" y1="511.4734192" x2="81.9518585" y2="415.2542114">
				<stop  offset="0" style="stop-color:#607160"/>
				<stop  offset="1" style="stop-color:#3A463B"/>
			</linearGradient>
			<path fill="url(#SVGID_20_)" d="M203.1630096,485.9158936l33.4159393-7.3551331c0,0-15.8226318,13.9952087-30.0335083,37.9107971
				l-80.9859543,29.6815796l11.191597-59.5108032l136.3879242-49.9876709L203.1630096,485.9158936z"/>
		</g>
		<g>
			<g>
				
					<linearGradient id="SVGID_21_" gradientUnits="userSpaceOnUse" x1="66.9880981" y1="121.7746658" x2="87.4866638" y2="247.5361481">
					<stop  offset="0" style="stop-color:#E4EFE0"/>
					<stop  offset="1" style="stop-color:#BBD1BC"/>
				</linearGradient>
				<path fill="url(#SVGID_21_)" d="M159.0095062,135.9452362c-11.1462097,23.2458496-18.7851715,48.6483307-22.6216431,75.2539673
					L0,261.1868896c0.7718273-5.32341,1.6912169-10.5900726,2.7581689-15.8112793
					c0.9988515-4.8920746,2.1339037-9.7387695,3.4051569-14.528656c4.1316075-15.6410522,9.6365833-30.6804962,16.4582577-44.914032
					L159.0095062,135.9452362z"/>
			</g>
		</g>
		
			<linearGradient id="SVGID_22_" gradientUnits="userSpaceOnUse" x1="66.1688843" y1="204.7819061" x2="56.3341408" y2="250.6773682">
			<stop  offset="0" style="stop-color:#C4D4C2"/>
			<stop  offset="1" style="stop-color:#AEC1AD"/>
		</linearGradient>
		<path fill="url(#SVGID_22_)" d="M7.9220686,237.8011017l49.592617-10.3453522L2.7581689,245.3756104
			c0.9988515-4.8920746,2.1339037-9.7387695,3.4051569-14.528656l114.9165878-26.9349213L7.9220686,237.8011017z"/>
		
			<linearGradient id="SVGID_23_" gradientUnits="userSpaceOnUse" x1="101.421608" y1="160.9356537" x2="92.5309906" y2="193.1459198">
			<stop  offset="0" style="stop-color:#C4D4C2"/>
			<stop  offset="1" style="stop-color:#AEC1AD"/>
		</linearGradient>
		<polygon fill="url(#SVGID_23_)" points="147.5016937,164.3465271 44.0138855,198.56427 145.2407837,171.400177 		"/>
		<g>
			<g>
				<g>
					<linearGradient id="SVGID_24_" gradientUnits="userSpaceOnUse" x1="0" y1="251.4935608" x2="187.306366" y2="251.4935608">
						<stop  offset="0" style="stop-color:#607160"/>
						<stop  offset="1" style="stop-color:#3A463B"/>
					</linearGradient>
					<polygon fill="url(#SVGID_24_)" points="187.306366,241.8001709 106.6268158,271.3683472 50.9184303,291.7879028 
						0,261.1868896 136.3878632,211.1992035 					"/>
				</g>
			</g>
			
				<linearGradient id="SVGID_25_" gradientUnits="userSpaceOnUse" x1="47.7392235" y1="169.5502777" x2="72.0360184" y2="248.7108154">
				<stop  offset="0" style="stop-color:#607160"/>
				<stop  offset="1" style="stop-color:#3A463B"/>
			</linearGradient>
			<path fill="url(#SVGID_25_)" d="M136.3878632,211.1992035c0,0-19.3526306,19.704483-29.7610474,60.1691437
				l-55.7083855,20.4195557L0,261.1868896L136.3878632,211.1992035z"/>
		</g>
		<g>
			<g>
				
					<linearGradient id="SVGID_26_" gradientUnits="userSpaceOnUse" x1="42.1915474" y1="425.7034912" x2="230.8204803" y2="425.7034912">
					<stop  offset="0" style="stop-color:#7E947D"/>
					<stop  offset="1" style="stop-color:#576958"/>
				</linearGradient>
				<polygon fill="url(#SVGID_26_)" points="230.8204803,392.3890686 94.433403,442.3777771 42.1915474,459.0179138 
					178.5786133,409.0292053 				"/>
			</g>
		</g>
		<g>
			<g>
				
					<linearGradient id="SVGID_27_" gradientUnits="userSpaceOnUse" x1="8.730546" y1="343.3795471" x2="191.7451019" y2="343.3795471">
					<stop  offset="0" style="stop-color:#E4EFE0"/>
					<stop  offset="1" style="stop-color:#BBD1BC"/>
				</linearGradient>
				<polygon fill="url(#SVGID_27_)" points="145.1176147,333.0772095 8.730546,383.065918 55.358036,353.6819153 
					191.7451019,303.6932068 				"/>
			</g>
		</g>
		<g>
			<g>
				
					<linearGradient id="SVGID_28_" gradientUnits="userSpaceOnUse" x1="75.2768707" y1="336.866394" x2="117.5284348" y2="473.1874695">
					<stop  offset="0" style="stop-color:#7E947D"/>
					<stop  offset="1" style="stop-color:#576958"/>
				</linearGradient>
				<path fill="url(#SVGID_28_)" d="M178.5786133,409.0292053L42.1915398,459.0179138
					c-7.1229362-11.5894165-13.5895634-23.8683167-19.2819195-36.7891846
					c-5.6917324-12.9194946-10.3995686-26.005127-14.1790743-39.1628113l136.3870697-49.9887085
					c3.7795105,13.1576843,8.4873352,26.2433167,14.1790771,39.1628113
					C164.9890442,385.1608887,171.4556732,397.4397888,178.5786133,409.0292053z"/>
			</g>
		</g>
		
			<linearGradient id="SVGID_29_" gradientUnits="userSpaceOnUse" x1="115.9880524" y1="369.0819092" x2="117.1796112" y2="419.127533">
			<stop  offset="0" style="stop-color:#607160"/>
			<stop  offset="1" style="stop-color:#3A463B"/>
		</linearGradient>
		<polygon fill="url(#SVGID_29_)" points="168.9508514,392.1694946 64.9230957,425.7034912 165.8782043,386.2119751 		"/>
		
			<linearGradient id="SVGID_30_" gradientUnits="userSpaceOnUse" x1="97.888298" y1="316.4537048" x2="94.5709839" y2="378.8192139">
			<stop  offset="0" style="stop-color:#AEC1AD"/>
			<stop  offset="1" style="stop-color:#849585"/>
		</linearGradient>
		<path fill="url(#SVGID_30_)" d="M8.730546,383.065918c0,0,54.5545464-9.2234192,64.4720001-15.6697388
			c9.91745-6.4463501,29.2564774-11.4050903,41.1574173-14.3803101c11.9009476-2.9752502,24.2977524-8.9257202,26.2812576-7.93396
			c1.98349,0.9917297,22.3205566,40.1251526,37.9373932,63.9472961l-33.4609985-75.9519958L8.730546,383.065918z"/>
	</g>
	<g>
		
			<linearGradient id="SVGID_31_" gradientUnits="userSpaceOnUse" x1="420.5027161" y1="141.9333038" x2="227.6454926" y2="632.6206665">
			<stop  offset="0" style="stop-color:#AEC1AD"/>
			<stop  offset="1" style="stop-color:#849585"/>
		</linearGradient>
		<path fill="url(#SVGID_31_)" d="M549.1043091,308.2120972c-0.0113525-0.0113831-0.0113525-0.0113831-0.0113525-0.0113831
			c1.3847046-20.1925354-0.0454712-41.0548096-4.4381104-61.8829956l46.6165771-29.3865204
			c-1.5663452-5.4595947-3.2915649-10.9078369-5.1871948-16.3334198
			c-2.5084229-7.2302856-5.3120117-14.4151764-8.4220581-21.5546265c-0.1815796-0.4313354-0.3632202-0.8513031-0.5561523-1.2826233
			c-5.697998-12.9282684-12.1564331-25.1868134-19.2958984-36.7870178l-43.9038086,13.9838562l-8.3199463,2.6446228
			c-12.3380127-17.1278992-26.662384-31.9857635-42.3374634-44.2443161l11.2029724-59.5221481
			c0,0-0.0227051-0.011364-0.0567322-0.0453796c-1.3847961-0.9080963-2.7695313-1.816124-4.1656799-2.7014275
			c-0.0226746-0.011364-0.0453796-0.0340881-0.0794067-0.0454483
			c-20.7374268-13.1893005-42.8709412-23.0869255-65.6287231-29.3864517l-22.9280701,54.0965614
			c-0.0113831,0.0113602-0.0113831,0.022728-0.0113831,0.022728c-18.3424072-3.3825073-37.0253906-3.7002869-55.413269-0.7037277
			c0,0-0.0113525-0.0113602-0.022644-0.0340881l-0.1135559-0.2042999l-0.0794373-0.1362l-0.1929626-0.3404999l-5.5617676-9.9090576
			c0-0.0226517-0.0112915-0.0453796-0.022644-0.0567398l-1.8047791-3.2122154c0-0.0112915-0.0113525-0.0112915-0.0113525-0.0112915
			l-22.9620972-40.9073334c-11.520813,3.0079174-22.8939819,7.082716-34.0288391,12.2585506
			c-11.1008453,5.1759071-21.5773621,11.2711334-31.3615112,18.1835632
			c-0.0340881,0.0113602-0.0454407,0.0227203-0.0454407,0.0227203l19.7839508,59.9193916
			c-14.3243561,12.2245331-26.4126129,26.8780212-36.0265503,43.2795563l-54.7094727-17.9792023
			c-3.9386597,8.2177734-7.4346466,16.696579-10.4765778,25.4024048
			c-5.5957947,15.9475555-9.6593018,32.6441193-12.1450653,49.8515625l9.1712341,5.5049744l41.7472687,25.095993
			c-1.3734436,20.192627,0.0453644,41.0662537,4.4380188,61.8944397l-46.6279755,29.3865051
			c3.7797546,13.1552124,8.4902496,26.2424011,14.1768646,39.1593018
			c5.6979218,12.9169006,12.1677246,25.1981201,19.2845306,36.7870178l52.2464294-16.6398315
			c12.3266449,17.1392517,26.6396942,31.9971313,42.3147736,44.2670593l-11.1916504,59.5107727
			c21.9746399,14.5853882,45.5950928,25.459198,69.930603,32.1786804l22.9393616-54.1192627
			c18.3424988,3.3824463,37.0254211,3.7229919,55.413269,0.7150879l30.7712708,54.8116455
			c11.5094299-3.0192261,22.894043-7.0940552,34.0175476-12.2698975
			c11.1348572-5.1871948,21.6113586-11.2824402,31.4182434-18.1948547l-19.7839661-59.9307556
			c14.3243713-12.2131653,26.4127197-26.8667297,36.0379028-43.2681885l53.0523682,17.4230347l1.645813,0.5447998
			c6.7536011-14.0746155,12.2131958-28.9438477,16.31073-44.4032593c2.6900635-10.0565491,4.789856-20.3628235,6.2994995-30.850708
			L549.1043091,308.2120972z M405.3271484,359.2894287c-40.1013489,18.6602783-89.237793-3.9272156-109.7481995-50.4870911
			c-20.5103455-46.5371399-4.6195984-99.4192657,35.4817505-118.0908203
			c40.1127625-18.6716309,89.249176,3.9385986,109.7481995,50.4871063
			C461.3193054,287.7471313,445.4399414,340.6178284,405.3271484,359.2894287z"/>
		<g>
			
				<linearGradient id="SVGID_32_" gradientUnits="userSpaceOnUse" x1="410.9059143" y1="221.2792206" x2="411.6125793" y2="250.958847">
				<stop  offset="0" style="stop-color:#E3EFDF"/>
				<stop  offset="1" style="stop-color:#BED4BF"/>
			</linearGradient>
			<polygon fill="url(#SVGID_32_)" points="440.8576965,231.4295502 438.6629639,236.6214752 381.9945679,254.8260345 
				437.5272827,234.6345978 			"/>
			
				<linearGradient id="SVGID_33_" gradientUnits="userSpaceOnUse" x1="410.9021301" y1="221.1201324" x2="411.6122131" y2="250.9435272">
				<stop  offset="0" style="stop-color:#607160"/>
				<stop  offset="1" style="stop-color:#3A463B"/>
			</linearGradient>
			<polygon fill="url(#SVGID_33_)" points="436.3822937,231.4295502 381.9945679,254.8260345 438.0009766,235.3143921 
				440.8576965,231.4295502 			"/>
		</g>
		<g>
			
				<linearGradient id="SVGID_34_" gradientUnits="userSpaceOnUse" x1="428.9254456" y1="236.2139435" x2="429.2086182" y2="248.1064453">
				<stop  offset="0" style="stop-color:#E3EFDF"/>
				<stop  offset="1" style="stop-color:#BED4BF"/>
			</linearGradient>
			<polygon fill="url(#SVGID_34_)" points="413.6625061,249.7436066 441.8489075,243.6405334 444.6052856,240.1935577 			"/>
			
				<linearGradient id="SVGID_35_" gradientUnits="userSpaceOnUse" x1="428.9006348" y1="235.1708984" x2="429.2062073" y2="248.006073">
				<stop  offset="0" style="stop-color:#607160"/>
				<stop  offset="1" style="stop-color:#3A463B"/>
			</linearGradient>
			<polygon fill="url(#SVGID_35_)" points="440.0889587,239.6024933 413.6625061,249.7436066 441.3191528,242.3775177 
				444.6052856,240.1935577 			"/>
		</g>
		
			<linearGradient id="SVGID_36_" gradientUnits="userSpaceOnUse" x1="446.1668701" y1="318.0798645" x2="426.1704102" y2="331.1441956">
			<stop  offset="0" style="stop-color:#E3EFDF"/>
			<stop  offset="1" style="stop-color:#BED4BF"/>
		</linearGradient>
		<path fill="url(#SVGID_36_)" d="M463.2950439,333.0772095c0,0-10.9906921-4.4124451-12.321991-5.0041504
			c-1.3312988-0.5916748-11.417511-2.0159912-11.417511-2.0159912l-69.1060486,15.3036804l70.4208069-17.9321289
			l11.3557129,3.8060608L463.2950439,333.0772095z"/>
		
			<linearGradient id="SVGID_37_" gradientUnits="userSpaceOnUse" x1="415.5198669" y1="343.1037292" x2="425.5574036" y2="299.427002">
			<stop  offset="0" style="stop-color:#7E947D;stop-opacity:0"/>
			<stop  offset="1" style="stop-color:#3A4A41"/>
		</linearGradient>
		<path fill="url(#SVGID_37_)" d="M370.4494934,341.3607483c0,0,71.7662659-23.2921753,72.1419983-23.5426636
			s0.7383728,0,0.7383728,0s5.8658447,2.2544556,6.3211365,2.7554321
			c0.4553223,0.5010071,13.644043,12.5036926,13.644043,12.5036926l-15.5684204-11.3764648l-10.6460266,0.2505188
			L370.4494934,341.3607483z"/>
		
			<linearGradient id="SVGID_38_" gradientUnits="userSpaceOnUse" x1="417.8033142" y1="298.1158142" x2="417.1889343" y2="323.9189758">
			<stop  offset="0" style="stop-color:#607160"/>
			<stop  offset="1" style="stop-color:#3A463B"/>
		</linearGradient>
		<path fill="url(#SVGID_38_)" d="M440.8703003,323.4286194c0,0,9.8675232,2.9629517,12.9302368,4.4943237
			c3.0627441,1.5313721,9.4945068,5.1542664,9.4945068,5.1542664s-10.7889099-8.3955994-13.522583-11.0401611
			c-0.853241-0.8254395-7.3040466-2.9960632-7.3040466-2.9960632l-72.0189209,22.3197632L440.8703003,323.4286194z"/>
		<g>
			
				<linearGradient id="SVGID_39_" gradientUnits="userSpaceOnUse" x1="404.9855042" y1="119.2402496" x2="320.2390442" y2="478.0369873">
				<stop  offset="0" style="stop-color:#9DAD9C;stop-opacity:0"/>
				<stop  offset="1" style="stop-color:#66846F"/>
			</linearGradient>
			<path fill="url(#SVGID_39_)" d="M600,338.8017578c-3.2803345,22.7237854-9.3187256,44.5735168-17.956543,64.9363708
				c-0.6356201,1.498291-1.2825928,2.985199-1.940918,4.4607544c-0.8853149,1.963623-1.7819824,3.9159546-2.7127686,5.856842
				l-54.6414185-17.956543c-0.0339966-0.0112915-0.0567627-0.0112915-0.0567627-0.0112915
				c-9.6251831,16.4014587-21.7135315,31.0550232-36.0379028,43.2681885l19.7839661,59.9307556
				c0,0-0.0227356,0.0113525-0.0681152,0.0453796c-9.7841492,6.8897705-20.2380066,12.9736328-31.3501282,18.1494751
				c-11.1235046,5.1758423-22.5081177,9.2506714-34.0175476,12.2698975l-30.7599182-54.800293
				c-0.0113525-0.0113525-0.0113525-0.0113525-0.0113525-0.0113525c-18.3878479,3.0079041-37.0707703,2.6673584-55.413269-0.7150879
				l-22.9393616,54.1192627c-24.3355103-6.7194824-47.9559631-17.5932922-69.930603-32.1786804l11.1802979-59.4540405
				l0.0113525-0.0567322c-15.6750793-12.269928-29.9881287-27.1278076-42.3147736-44.2670593l-52.2464294,16.6398315
				c-7.116806-11.5888977-13.5866089-23.8701172-19.2845306-36.7870178
				c-4.6310272-10.5219421-8.6150818-21.1573792-11.9748535-31.8609314
				c-0.7718353-2.4290161-1.4982758-4.8694153-2.2020111-7.2983704l25.606781-16.1404724l21.0211945-13.2460327
				c-4.3926544-20.828186-5.8114624-41.7018127-4.4380188-61.8944397l-50.9185028-30.6009674
				c2.4857635-17.2074432,6.5492706-33.904007,12.1450653-49.8515625
				c39.8630371-11.305069,84.1074219-14.7783203,98.0799103,85.3900452
				c14.3470001,102.8130646,121.1441193,194.4798126,194.4684601,112.381546
				c59.0681763-66.1395264,74.1757202-162.2784729,136.5808716-180.0760803
				c5.4368896,12.496933,9.9658203,25.1640778,13.6092529,37.8880463l-46.6165771,29.3865204
				c4.3926392,20.828186,5.8228149,41.6904602,4.4381104,61.8829956L600,338.8017578z"/>
			
				<linearGradient id="SVGID_40_" gradientUnits="userSpaceOnUse" x1="418.6697083" y1="177.2322388" x2="352.6303101" y2="405.0682068">
				<stop  offset="0" style="stop-color:#9DAD9C;stop-opacity:0"/>
				<stop  offset="1" style="stop-color:#65816D"/>
			</linearGradient>
			<path fill="url(#SVGID_40_)" d="M580.1025391,408.1988831c-0.8853149,1.963623-1.7819824,3.9159546-2.7127686,5.856842
				l-54.6414185-17.956543c-0.0339966-0.0112915-0.0567627-0.0112915-0.0567627-0.0112915
				c-9.6251831,16.4014587-21.7135315,31.0550232-36.0379028,43.2681885l19.7839661,59.9307556
				c0,0-0.0227356,0.0113525-0.0681152,0.0453796c-9.7841492,6.8897705-20.2380066,12.9736328-31.3501282,18.1494751
				c-11.1235046,5.1758423-22.5081177,9.2506714-34.0175476,12.2698975l-30.7599182-54.800293
				c-0.0113525-0.0113525-0.0113525-0.0113525-0.0113525-0.0113525c-18.3878479,3.0079041-37.0707703,2.6673584-55.413269-0.7150879
				l-22.9393616,54.1192627c-24.3355103-6.7194824-47.9559631-17.5932922-69.930603-32.1786804l11.1802979-59.4540405
				l0.0113525-0.0567322c-15.6750793-12.269928-29.9881287-27.1278076-42.3147736-44.2670593l-52.2464294,16.6398315
				c-7.116806-11.5888977-13.5866089-23.8701172-19.2845306-36.7870178
				c-4.6310272-10.5219421-8.6150818-21.1573792-11.9748535-31.8609314
				c-0.7718353-2.4290161-1.4982758-4.8694153-2.2020111-7.2983704l25.606781-16.1404724
				c14.5513763,25.5727539,49.181839,27.842865,90.9517365,31.7588196
				c49.6358948,4.6536865,28.6941833,38.7733459,47.3089905,80.6567993
				c18.6148682,41.8833923,47.3090515-18.6148682,117.8865967-21.713562
				C497.3458557,404.5439758,500.5467224,358.914917,580.1025391,408.1988831z"/>
			
				<linearGradient id="SVGID_41_" gradientUnits="userSpaceOnUse" x1="408.5927429" y1="174.3113861" x2="342.5533447" y2="402.1473389">
				<stop  offset="0" style="stop-color:#9DAD9C;stop-opacity:0"/>
				<stop  offset="1" style="stop-color:#65816D"/>
			</linearGradient>
			<path fill="url(#SVGID_41_)" d="M343.1004639,397.1559753c-29.6903381,9.3759155-37.1478577,33.433075-2.476532,20.4313354
				C375.2952576,404.5855408,366.6274109,389.7264099,343.1004639,397.1559753z"/>
		</g>
		<g>
			
				<linearGradient id="SVGID_42_" gradientUnits="userSpaceOnUse" x1="322.3735962" y1="423.7142334" x2="277.769989" y2="458.4465332">
				<stop  offset="0.0051282" style="stop-color:#66846F;stop-opacity:0"/>
				<stop  offset="1" style="stop-color:#8AA787;stop-opacity:0.9742275"/>
			</linearGradient>
			<path fill="url(#SVGID_42_)" d="M273.1390076,436.6546631c0,0-3.2389832,31.395752-1.7664185,32.8683167
				s6.3811035,5.3993835,1.9634094,8.8353882c-4.4176941,3.4359741-11.3886414,17.8070679-11.3886414,17.8070679
				L273.1390076,436.6546631z"/>
			
				<linearGradient id="SVGID_43_" gradientUnits="userSpaceOnUse" x1="473.7229309" y1="449.7000427" x2="445.5714722" y2="518.0678711">
				<stop  offset="0.0051282" style="stop-color:#66846F;stop-opacity:0"/>
				<stop  offset="1" style="stop-color:#8AA787;stop-opacity:0.9742275"/>
			</linearGradient>
			<path fill="url(#SVGID_43_)" d="M506.3695374,499.3322144c-9.7841492,6.8897705-20.2380066,12.9736328-31.3501282,18.1494751
				c-11.1235046,5.1758423-22.5081177,9.2506714-34.0175476,12.2698975l-30.7599182-54.800293
				c0.6242676,0.4767151,20.4650269,15.6523438,23.6091003,23.6771851
				c3.1894836,8.1496582,0.3518677,17.366272,9.2053223,17.7181396c8.8647461,0.3632202,12.4060974-4.2450562,24.0971375-2.8262329
				C478.5040283,514.8937988,504.8031616,500.2062073,506.3695374,499.3322144z"/>
			
				<linearGradient id="SVGID_44_" gradientUnits="userSpaceOnUse" x1="552.742981" y1="401.6830444" x2="557.130249" y2="423.9848328">
				<stop  offset="0.0051282" style="stop-color:#66846F;stop-opacity:0"/>
				<stop  offset="1" style="stop-color:#8AA787;stop-opacity:0.9742275"/>
			</linearGradient>
			<path fill="url(#SVGID_44_)" d="M582.043457,403.7381287c-1.4755249,3.4846191-3.0305786,6.9237976-4.6536865,10.3175964
				l-54.6414185-17.956543c1.6117554,0.3745728,39.2501221,8.9896545,48.9547729,9.3301697
				C575.3466797,405.5541992,578.9561768,404.7823486,582.043457,403.7381287z"/>
		</g>
		
			<linearGradient id="SVGID_45_" gradientUnits="userSpaceOnUse" x1="422.6357727" y1="77.7593689" x2="373.8249207" y2="254.5986786">
			<stop  offset="0" style="stop-color:#C4D4C2"/>
			<stop  offset="1" style="stop-color:#AEC1AD"/>
		</linearGradient>
		<path fill="url(#SVGID_45_)" d="M600,338.8017578c-1.5096436,10.4878845-3.609436,20.7941589-6.2994995,30.850708
			c-4.0975342,15.4594116-9.5571289,30.3286438-16.31073,44.4032593l-1.645813-0.5447998
			c1.793396-12.7012634,9.3527832-46.5598755-1.0442505-52.6778259
			c-11.6797485-6.8670654-25.4138184-14.4264832-32.9732666-21.2935181
			c-7.5594482-6.8671265,0.6810303-10.9873047-4.1202393-21.9859619
			c-4.8126221-10.9873657-11.6797485-10.3063049-11.6797485-10.3063049s18.546814-47.3997803,13.7341919-57.7060852
			c-4.8013306-10.3062286-10.3062744-13.7341003-19.2277832-17.8543549
			c-8.9328613-4.1316071,6.1746826-25.4252014,0.6810303-37.1048584
			c-5.4936523-11.6796722-44.5054016-34.6190948-48.0921936-39.8403168
			c-3.5753784-5.221283-21.2935791-1.3734283-30.9074402-0.6924286
			c-9.6253052,0.6924286-39.1593018-43.2795486-39.8516846-46.7187271
			c-0.6810608-3.4278793-28.1606445,2.0658035-37.7859192,4.1316071
			c-9.6138611,2.0544434-37.7858887-19.9315109-77.6262512-6.1860428
			c-39.8403168,13.7341003-61.1452789,52.8934021-74.8793793,57.0136566
			c-13.7454681,4.1316071-29.5454407-5.4936218-33.6656189,0.6923676c-4.1202545,6.1860504,4.1201782,21.9860229,0,29.5454407
			c-3.598175,6.5832825-22.8599701,11.611557-32.7463074,24.1766052l-9.1712341-5.5049744
			c2.4857635-17.2074432,6.5492706-33.904007,12.1450653-49.8515625
			c3.0419312-8.7058258,6.5379181-17.1846313,10.4765778-25.4024048l54.7094727,17.9792023
			c9.6139374-16.401535,21.7021942-31.0550232,36.0265503-43.2795563l-19.7839508-59.9193916
			c0,0,0.0113525-0.0113602,0.0454407-0.0227203c9.7841492-6.9124298,20.2606659-13.0076561,31.3615112-18.1835632
			c11.1348572-5.1758347,22.5080261-9.2506332,34.0288391-12.2585506l22.9620972,40.9073334c0,0,0.0113525,0,0.0113525,0.0112915
			l1.8047791,3.2122154c0.0113525,0.0113602,0.022644,0.0340881,0.022644,0.0567398l5.5617676,9.9090576l0.1929626,0.3404999
			l0.0794373,0.1362l0.1135559,0.2042999c0.0112915,0.022728,0.022644,0.0340881,0.022644,0.0340881
			c18.3878784-2.9965591,37.0708618-2.6787796,55.413269,0.7037277c0,0,0-0.0113678,0.0113831-0.022728l22.9280701-54.0965614
			c22.757782,6.2995262,44.8912964,16.1971512,65.6287231,29.3864517c0.0340271,0.0113602,0.0567322,0.0340843,0.0794067,0.0454483
			c1.3961487,0.8853035,2.7808838,1.7933311,4.1656799,2.7014275c0.0340271,0.0340157,0.0567322,0.0453796,0.0567322,0.0453796
			l-11.2029724,59.5221481c15.6750793,12.2585526,29.9994507,27.1164169,42.3374634,44.2443161l8.3199463-2.6446228
			l43.9038086-13.9838562c7.1394653,11.6002045,13.5979004,23.8587494,19.2958984,36.7870178
			c0.1929321,0.4313202,0.3745728,0.8512878,0.5561523,1.2826233c3.1100464,7.1394501,5.9136353,14.3243408,8.4220581,21.5546265
			c1.8956299,5.4255829,3.6208496,10.8738251,5.1871948,16.3334198l-46.6165771,29.3865204
			c4.3926392,20.828186,5.8228149,41.6904602,4.4381104,61.8829956c0,0,0,0,0.0113525,0.0113831L600,338.8017578z"/>
		
			<linearGradient id="SVGID_46_" gradientUnits="userSpaceOnUse" x1="229.4295197" y1="115.2242279" x2="230.0895844" y2="130.4058533">
			<stop  offset="0" style="stop-color:#607160"/>
			<stop  offset="1" style="stop-color:#3A463B"/>
		</linearGradient>
		<polygon fill="url(#SVGID_46_)" points="237.7172089,122.0190201 217.5254517,127.7948914 240.174057,119.5029907 
			242.2253113,123.1636658 		"/>
		
			<linearGradient id="SVGID_47_" gradientUnits="userSpaceOnUse" x1="229.8753815" y1="121.6964493" x2="229.8753815" y2="128.3529358">
			<stop  offset="0" style="stop-color:#E3EFDF"/>
			<stop  offset="1" style="stop-color:#BED4BF"/>
		</linearGradient>
		<polygon fill="url(#SVGID_47_)" points="236.8162231,122.9691925 242.2253113,123.1636658 237.7172089,122.0190201 
			217.5254517,127.7948914 		"/>
		
			<linearGradient id="SVGID_48_" gradientUnits="userSpaceOnUse" x1="211.6068573" y1="120.7315903" x2="212.6636963" y2="145.0390472">
			<stop  offset="0" style="stop-color:#607160"/>
			<stop  offset="1" style="stop-color:#3A463B"/>
		</linearGradient>
		<polygon fill="url(#SVGID_48_)" points="229.1152954,131.7529144 186.4569702,141.1233978 232.7896118,127.4093399 
			238.2318115,134.2663727 		"/>
		
			<linearGradient id="SVGID_49_" gradientUnits="userSpaceOnUse" x1="212.2510223" y1="135.0339813" x2="212.6963196" y2="147.7252045">
			<stop  offset="0" style="stop-color:#E3EFDF"/>
			<stop  offset="1" style="stop-color:#BED4BF"/>
		</linearGradient>
		<polygon fill="url(#SVGID_49_)" points="186.4569702,141.1233978 229.1152954,131.7529144 238.2318115,134.2663727 
			227.4165649,133.6253204 		"/>
		<g>
			
				<linearGradient id="SVGID_50_" gradientUnits="userSpaceOnUse" x1="263.2177124" y1="106.3768692" x2="200.0000153" y2="397.1781921">
				<stop  offset="0" style="stop-color:#E3EFDF"/>
				<stop  offset="1" style="stop-color:#BED4BF"/>
			</linearGradient>
			<path fill="url(#SVGID_50_)" d="M295.3973694,20.2606564l22.9620972,40.9073334
				c-4.0067139-5.8114624-16.2993469-21.0665703-20.1471863-25.1187134
				c-4.4721069-4.7332191-3.9726868-11.4413471-5.2212219-11.940773c-1.2485962-0.4994259-6.4698181,0.2497463-9.2052612,4.9715347
				c-2.7355042,4.7217865-14.9259644,2.9851913-26.6169739,8.4561539
				c-11.3278046,5.3006744-26.2424164,12.7126007-27.1618042,13.1665802
				c9.7841492-6.9124298,20.2606659-13.0076561,31.3615112-18.1835632
				C272.5033875,27.3433723,283.8765564,23.2685738,295.3973694,20.2606564z"/>
			
				<linearGradient id="SVGID_51_" gradientUnits="userSpaceOnUse" x1="312.7867126" y1="117.1527405" x2="249.5690308" y2="407.954071">
				<stop  offset="0" style="stop-color:#E3EFDF"/>
				<stop  offset="1" style="stop-color:#BED4BF"/>
			</linearGradient>
			<path fill="url(#SVGID_51_)" d="M320.1982422,64.4482346l5.8341675,10.3857574
				C325.2946777,73.5741043,321.7646179,67.5583344,320.1982422,64.4482346z"/>
			
				<linearGradient id="SVGID_52_" gradientUnits="userSpaceOnUse" x1="409.6101379" y1="138.2013092" x2="346.3924561" y2="429.0026245">
				<stop  offset="0" style="stop-color:#E3EFDF"/>
				<stop  offset="1" style="stop-color:#BED4BF"/>
			</linearGradient>
			<path fill="url(#SVGID_52_)" d="M404.5213318,21.6568184c22.757782,6.2995262,44.8912964,16.1971512,65.6287231,29.3864517
				c-2.5652161-1.4528313-6.4017029-3.325695-11.7137451-5.2893143
				c-11.4526978-4.2337227-40.8051453-12.6898766-43.7903442-15.6750698s-7.4686584-4.2337227-9.9544373,3.2348728
				c-2.4516602,7.3438225-22.4740295,41.372673-23.0982666,42.439621L404.5213318,21.6568184z"/>
			
				<linearGradient id="SVGID_53_" gradientUnits="userSpaceOnUse" x1="551.8754883" y1="169.1285706" x2="488.6578064" y2="459.9298706">
				<stop  offset="0" style="stop-color:#E3EFDF"/>
				<stop  offset="1" style="stop-color:#BED4BF"/>
			</linearGradient>
			<path fill="url(#SVGID_53_)" d="M553.9395752,147.0687408c-3.4959106,0.4994202-27.4455566,5.3347626-40.0332642,7.8886261
				l43.9038086-13.9838562c7.1394653,11.6002045,13.5979004,23.8587494,19.2958984,36.7870178
				c0.1929321,0.4313202,0.3745728,0.8512878,0.5561523,1.2826233c3.1100464,7.1394501,5.9136353,14.3243408,8.4220581,21.5546265
				c-7.8659058-18.5240631-21.7589111-41.486145-23.2798462-44.1989441
				C560.7612305,152.7553558,558.7067871,146.3876648,553.9395752,147.0687408z"/>
			
				<linearGradient id="SVGID_54_" gradientUnits="userSpaceOnUse" x1="605.9107666" y1="180.875351" x2="542.6930542" y2="471.6766663">
				<stop  offset="0" style="stop-color:#E3EFDF"/>
				<stop  offset="1" style="stop-color:#BED4BF"/>
			</linearGradient>
			<path fill="url(#SVGID_54_)" d="M593.9161377,366.7921143c1.4755249-20.0449829,2.6560669-20.3401184,0.295105-26.2310486
				c-2.3609009-5.9022827-9.432251-6.7875671-17.6954956-9.1484985c-8.1269531-2.3268433-26.8212891-22.5648499-27.411438-23.20047
				L600,338.8017578c-1.5096436,10.4878845-3.609436,20.7941589-6.2994995,30.850708
				C593.7685547,368.7217102,593.8480225,367.7683105,593.9161377,366.7921143z"/>
			
				<linearGradient id="SVGID_55_" gradientUnits="userSpaceOnUse" x1="194.5127258" y1="91.4410095" x2="131.2950439" y2="382.2423401">
				<stop  offset="0" style="stop-color:#E3EFDF"/>
				<stop  offset="1" style="stop-color:#BED4BF"/>
			</linearGradient>
			<path fill="url(#SVGID_55_)" d="M213.7189789,153.9244385c0,0-12.6444244,3.0305634-22.3945618-2.6900787
				c-9.7614136-5.7206421-16.4809723-3.7002716-23.2118378-5.7206421
				c-6.7308502-2.0090637-7.7410583-3.7002716-13.4503326,15.4707794
				c-5.7207184,19.1709747-18.2743835,50.2147064-18.2743835,50.2147064
				c2.4857635-17.2074432,6.5492706-33.904007,12.1450653-49.8515625
				c3.0419312-8.7058258,6.5379181-17.1846313,10.4765778-25.4024048L213.7189789,153.9244385z"/>
			
				<linearGradient id="SVGID_56_" gradientUnits="userSpaceOnUse" x1="216.7173004" y1="96.2680893" x2="153.4996338" y2="387.069397">
				<stop  offset="0" style="stop-color:#C4D4C2"/>
				<stop  offset="1" style="stop-color:#AEC1AD"/>
			</linearGradient>
			<path fill="url(#SVGID_56_)" d="M191.7443848,303.6946106c0,0-3.7002869,6.3335876-5.0736542,9.0804138
				c-1.3734436,2.7467957-14.1881561,10.0679016-22.8940582,15.1075439
				c-6.3789825,3.7002869-13.2460327,9.6138611-16.458252,12.4969177c-0.7718353-2.4290161-1.4982758-4.8694153-2.2020111-7.2983704
				L191.7443848,303.6946106z"/>
		</g>
	</g>
</g>
</svg>
