<svg xmlns="http://www.w3.org/2000/svg" data-name="Layer 1" width="751.38349" height="542.54918" viewBox="0 0 751.38349 542.54918" xmlns:xlink="http://www.w3.org/1999/xlink"><path d="M375.8614,511.81584a6.33861,6.33861,0,0,1-4.59384-10.98637c.15983-.63527.27449-1.09145.43432-1.72672q-.08578-.20739-.17257-.41449c-5.83558-13.91487-25.613-13.81889-31.39887.11669-5.13545,12.36853-11.67376,24.7582-13.28365,37.83583a50.35737,50.35737,0,0,0,.884,17.31882,201.89259,201.89259,0,0,1-18.36538-83.85246,194.86588,194.86588,0,0,1,1.20872-21.73893q1.00134-8.87605,2.77837-17.62573a204.23166,204.23166,0,0,1,40.501-86.55859,54.352,54.352,0,0,0,22.60483-23.45276,41.45963,41.45963,0,0,0,3.77051-11.32949c-1.10043.14434-2.219.23454-3.3194.30663-.34282.018-.7036.036-1.04643.05415l-.12928.00579a6.28011,6.28011,0,0,1-5.15774-10.23137q.71273-.87711,1.42632-1.75336c.7217-.90209,1.46135-1.78609,2.18291-2.688a3.13011,3.13011,0,0,0,.23454-.27073c.83-1.02834,1.65969-2.03857,2.48968-3.06691A18.15966,18.15966,0,0,0,370.956,286.003c-8.31672-4.87094-19.79055-1.4974-25.79811,6.02552-6.02553,7.52278-7.162,18.07671-5.06943,27.47577,1.78623,8.04614,5.68284,15.42472,10.06676,22.44238-.45112.57736-.92019,1.13663-1.37116,1.714a205.55015,205.55015,0,0,0-21.4543,33.98874c1.70428-13.31275-.8119-29.351-5.10143-39.68953-4.883-11.77959-14.03532-21.70042-22.09507-31.88387-9.68108-12.23186-29.533-6.89359-31.2386,8.61221q-.02476.2252-.04836.45025,1.79573,1.01307,3.51557,2.15048a8.59788,8.59788,0,0,1-3.46649,15.64652l-.17532.02708a85.55081,85.55081,0,0,0,2.255,12.79084,88.0819,88.0819,0,0,0,43.85658,55.20416c.70361.36078,1.38926.72156,2.09286,1.06438a209.80612,209.80612,0,0,0-11.29343,53.1475,198.99486,198.99486,0,0,0,.14434,32.13027q-.02715-.18959-.05415-.37888a52.58273,52.58273,0,0,0-17.95046-30.36228C273.957,445.211,254.44065,441.03234,239.538,431.9111c-7.17373-4.39073-16.36634,1.28328-15.11433,9.6003q.03.19913.06095.39827a57.76151,57.76151,0,0,1,6.4765,3.12091q1.79571,1.01328,3.51556,2.15048a8.598,8.598,0,0,1-3.46648,15.64666l-.17547.02693c-.12624.0181-.23454.0362-.36063.05429a85.62221,85.62221,0,0,0,15.7493,24.66135,88.16015,88.16015,0,0,0,63.93582,28.05313h.01809a209.74643,209.74643,0,0,0,14.08976,41.1325h50.33307c.18054-.55927.34283-1.13663.50527-1.69589a57.18767,57.18767,0,0,1-13.92747-.82971c3.73446-4.5824,7.46878-9.20086,11.20324-13.78312a3.12714,3.12714,0,0,0,.23454-.27058c1.89423-2.34521,3.80656-4.67246,5.70079-7.01767l.001-.00289a83.76736,83.76736,0,0,0-2.45451-21.3392Z" transform="translate(-224.30825 -178.72541)" fill="#26854c"/><path d="M974.50106,558.66977l-748.75.30733a1.19068,1.19068,0,0,1,0-2.38136l748.75-.30734a1.19068,1.19068,0,1,1,0,2.38137Z" transform="translate(-224.30825 -178.72541)" fill="#cacaca"/><path d="M859.11838,557.91569c-34.09286,1.442-53.37028.39271-78.22357-21.18006-16.92045-.45-30.37082-12.68688-29.98275-27.27757s14.47-26.09524,31.3904-25.6452l61.43777,2.91255c16.92045.45,48.38808-.59069,48,14-.19054,7.16408-.194,16.45418-.85833,26.18611A33.256,33.256,0,0,1,859.11838,557.91569Z" transform="translate(-224.30825 -178.72541)" fill="#2f2e41"/><polygon points="525.304 515.773 507.701 518.649 488.231 452.121 514.211 447.876 525.304 515.773" fill="#ffb6b6"/><path d="M742.61785,555.77533c32.81952,8.06963,57.05375-1.0182,77.014.16021,11.34639-19.1458,47.56476-43.4644,27.80319-53.70078-11.00513-5.7006-122.88-18.84194-137.56656-3.67511-37.76539,39.00042,9.1236,162.16576,9.1236,162.16576l26.0794-.33658,8.332-11.89277-6.71137-12.96136,6.34869-10.59716-7.26572-10.91632Z" transform="translate(-224.30825 -178.72541)" fill="#2f2e41"/><path d="M761.7195,707.791l-11.53242,3.08789-4.97382-10.3368-2.35675,12.29962-30.58672,8.18982a7.11782,7.11782,0,0,1-7.26292-11.48749l19.90878-23.40938-2.94731-11.00737,26.10212-5.34566Z" transform="translate(-224.30825 -178.72541)" fill="#2f2e41"/><polygon points="669.559 494.09 656.712 506.463 602.873 462.801 621.834 444.539 669.559 494.09" fill="#ffb6b6"/><path d="M790.30545,535.25269c30.08507,11.5877,56.39712-1.2993,82.39282-16.23705-1.54987-22.20135-2.41567-54.21334-24.49256-51.40021-12.29453,1.56662-113.90965,18.358-117.3697,39.18482-8.89728,53.5546,118.64046,155.638,118.64046,155.638l21.26376-15.103.09356-14.5207-12.88987-6.84771-.8015-12.32733-12.18331-4.85013Z" transform="translate(-224.30825 -178.72541)" fill="#2f2e41"/><path d="M911.38435,676.86777l-7.73207,9.09653-9.96835-5.6763,5.05346,11.4585-20.5073,24.12616a7.11782,7.11782,0,0,1-12.50571-5.32162l3.07042-30.57664-8.68237-7.38,18.43478-19.23682Z" transform="translate(-224.30825 -178.72541)" fill="#2f2e41"/><path d="M774.44334,491.0819c-2.11919,0-3.32294-.41561-3.78909-1.30672-.68393-1.308-5.05107-3.01654-3.677-4.996.9585-1.3791,3.27183-3.2262,2.38129-4.28952-3.43108-4.09672-11.99624-121.60331-14.01428-137.63406a31.94224,31.94224,0,0,1,1.96324-14.62594c5.65431-16.02,13.37227-20.9436,28.74768-30.75081q1.87207-1.19439,3.89892-2.49486c1.7479-1.12325,1.65055,1.5,1.54759-2.44382-.1142-4.38317-.23277-8.9161,1.91451-11.74919l.13978-.18471.22528-.05242c5.19377-1.20062,22.66217-3.42965,33.00729.01623l.1429.04867.10671.10609c2.45742,2.45742,2.68144,7.2175,2.898,11.82032.17722,3.77911.34509.99982,1.73542,2.5499,5.31453,5.92389,13.3219,9.3467,20.00064,11.28853a19.57023,19.57023,0,0,1,14.15732,19.43961c-.72427,21.93044-.15482,56.60771-3.89806,81.04516-6.22989,40.67137,50.64608,99.40714,18.06946,100.61386a.83383.83383,0,0,1,.02622.86367C877.70206,512.69041,782.43089,491.0819,774.44334,491.0819Zm104.488,17.09929Z" transform="translate(-224.30825 -178.72541)" fill="#26854c"/><circle cx="583.10496" cy="59.7317" r="38.83201" fill="#2f2e41"/><circle cx="809.74894" cy="252.59892" r="27.90667" transform="translate(-231.13772 -155.6897) rotate(-1.623)" fill="#ffb6b6"/><path d="M810.01868,210.03957l-11.31263.32055a26.92658,26.92658,0,0,0-26.13224,27.64642l.0071.25054.20614.12919a35.703,35.703,0,0,0,20.77619,5.91116l.63594-.018,6.25075-.28319a17.26909,17.26909,0,0,0,1.022-8.51542,57.44328,57.44328,0,0,1,2.20441,8.36614l28.04633-1.27689a6.26356,6.26356,0,0,0,5.95182-6.40816A26.92662,26.92662,0,0,0,810.01868,210.03957Z" transform="translate(-224.30825 -178.72541)" fill="#2f2e41"/><path d="M787.47574,203.03708c-2.55315,3.1487-6.65317,4.46068-10.337,6.166a44.20347,44.20347,0,0,0-24.7556,33.00792c-.868,5.78187-.5644,11.73308-2.034,17.38738-1.45993,5.654-5.31257,11.26977-11.0377,12.406-3.87408.77519-7.81924-.61744-11.523-1.99766q-3.05532-1.1285-6.11086-2.26668,2.92693-7.99566,5.84421-15.991a80.16571,80.16571,0,0,1-11.28227,13.98488q-10.9497-4.05837-21.91869-8.1162c17.79-.43657,14.26532-17.61823,17.75406-35.05648,1.91763-9.58234,20.36128-16.5566,23.7567-25.71793a27.7207,27.7207,0,0,1,50.18974-3.94879C789.71474,194.24608,789.98181,199.92833,787.47574,203.03708Z" transform="translate(-224.30825 -178.72541)" fill="#2f2e41"/><circle cx="564.94627" cy="21.40049" r="14.45978" fill="#2f2e41"/><path d="M840.61816,423.22541H773.8623a8.63193,8.63193,0,0,1-8.62207-8.62207V342.84748a8.63162,8.63162,0,0,1,8.62207-8.62207h66.75586a8.63162,8.63162,0,0,1,8.62207,8.62207v71.75586A8.63193,8.63193,0,0,1,840.61816,423.22541Z" transform="translate(-224.30825 -178.72541)" fill="#efefef"/><circle cx="551.43198" cy="166" r="5" fill="#26854c"/><circle cx="551.43198" cy="166" r="3" fill="#efefef"/><path d="M796.70773,419.74114l-45.85287-11.6275-7.12738,23.59246s49.33068,3.653,51.17466,3.67a11.79941,11.79941,0,1,0,1.80559-15.635Z" transform="translate(-224.30825 -178.72541)" fill="#ffb6b6"/><path d="M766.10869,312.7535C733.415,330.224,719.08731,369.1705,699.029,403.39771a27.04346,27.04346,0,0,0,26.4019,30.01721l39.24009.90411-4.91844-24.21241-13.12484-7.45714,15.51385-37.52933Z" transform="translate(-224.30825 -178.72541)" fill="#26854c"/><path d="M814.57139,350.57905l31.29528,37.976-12.924,20.47854s-31.46638-49.194-32.17635-50.8959a11.7994,11.7994,0,1,1,13.80507-7.55859Z" transform="translate(-224.30825 -178.72541)" fill="#ffb6b6"/><path d="M861.74023,313.72541c9.44556-5.21985,36.99793,75.282,8.0055,121.06763a27.04351,27.04351,0,0,1-37.74812-13.15959L816.99,384.90231l24.04643-7.66611,11.48376,13.178-1.598-26.21762,13.668-37.26166Z" transform="translate(-224.30825 -178.72541)" fill="#26854c"/><circle cx="324.405" cy="49.96671" r="44.96671" fill="#26854c"/><path d="M568.8135,220.73408H528.613a6.36208,6.36208,0,0,0-6.36213,6.362v40.20061a6.36216,6.36216,0,0,0,6.36213,6.36212H568.8135a6.36216,6.36216,0,0,0,6.36213-6.36212V227.0961A6.36208,6.36208,0,0,0,568.8135,220.73408Zm-20.10024,40.57564a14.11327,14.11327,0,1,1,14.11326-14.11326A14.11327,14.11327,0,0,1,548.71326,261.30972Zm15.87742-28.22653a3.52832,3.52832,0,1,1,3.52832-3.52831A3.52835,3.52835,0,0,1,564.59068,233.08319Z" transform="translate(-224.30825 -178.72541)" fill="#fff"/><circle cx="338.46527" cy="307.51439" r="44.96671" fill="#26854c"/><path d="M551.2027,531.20651a38.13052,38.13052,0,0,1-20.82534-6.17283l-3.11829-2.02689,3.69629.41c.96822.10768,2.01138.17056,3.09934.18607a25.9,25.9,0,0,0,14.04866-4.12872,14.62635,14.62635,0,0,1-10.79255-9.71234l-.46257-1.42649,1.47128.28857a12.28508,12.28508,0,0,0,2.02774.22827,14.30374,14.30374,0,0,1-7.75954-12.685v-1.51091l1.31537.58145a12.11431,12.11431,0,0,0,2.46362,1.04747,14.50132,14.50132,0,0,1-1.73832-16.88958l.64261-1.10863.80628.99493a36.8281,36.8281,0,0,0,23.54048,13.32508,1.77374,1.77374,0,0,0,1.423-.42468,1.82031,1.82031,0,0,0,.62624-1.3748,14.199,14.199,0,0,1,24.2589-10.12927,26.18206,26.18206,0,0,0,7.73369-3.03731l2.02517-1.19908-.73823,2.23449a14.36388,14.36388,0,0,1-3.35431,5.52591A26.3502,26.3502,0,0,0,595.5444,482.83l2.74358-1.206-1.653,2.4998a28.14059,28.14059,0,0,1-6.47088,6.91019v1.27488c0,19.12062-14.544,38.89762-38.883,38.89762Z" transform="translate(-224.30825 -178.72541)" fill="#fff"/><circle cx="233.39869" cy="178.74055" r="44.96671" fill="#26854c"/><path d="M477.80719,349.50792H437.6067a6.36208,6.36208,0,0,0-6.36213,6.362v40.20061a6.36216,6.36216,0,0,0,6.36213,6.36212h40.20049a6.36216,6.36216,0,0,0,6.36213-6.36212V355.86994A6.36208,6.36208,0,0,0,477.80719,349.50792Zm-7.54838,13.5722h-4.61014c-3.14768,0-3.76036,1.49034-3.76036,3.6908v4.6658H469.395l-.97479,7.32582h-6.54592v19.103a22.66806,22.66806,0,0,1-8.46805-.02013V378.76254h-6.00292v-7.32582h6.11447V366.019c0-6.47658,4.49858-10.014,10.29229-10.014,2.78557,0,5.76625.209,6.4487.30633Z" transform="translate(-224.30825 -178.72541)" fill="#fff"/></svg>